<?xml version="1.0" encoding="utf-8"?>
<!-- Generator: Adobe Illustrator 20.0.0, SVG Export Plug-In . SVG Version: 6.00 Build 0)  -->
<svg version="1.1" id="Capa_1" xmlns="http://www.w3.org/2000/svg" xmlns:xlink="http://www.w3.org/1999/xlink" x="0px" y="0px"
	 width="476.7px" height="113.8px" viewBox="0 0 476.7 113.8" style="enable-background:new 0 0 476.7 113.8;" xml:space="preserve"
	>
<style type="text/css">
	.st0{fill:#3D5D7D;}
	.st1{fill:#5EA5DC;}
	.st2{opacity:0.56;fill:url(#SVGID_1_);}
	.st3{opacity:0.56;fill:url(#SVGID_2_);}
	.st4{opacity:0.56;fill:url(#SVGID_3_);}
</style>
<g>
	<g>
		<g>
			<g>
				<path class="st0" d="M142.1,109h-7.9V95h7.3c0.3,0,0.5,0,0.8,0.1c0.3,0.1,0.6,0.2,0.8,0.3s0.5,0.3,0.8,0.4s0.4,0.4,0.6,0.6
					c0.3,0.4,0.5,0.8,0.7,1.2c0.2,0.4,0.2,0.9,0.2,1.4c0,0.5-0.1,1.1-0.3,1.6c-0.2,0.5-0.5,0.9-0.9,1.3c0.3,0.2,0.5,0.4,0.7,0.6
					c0.2,0.2,0.4,0.5,0.6,0.8c0.2,0.3,0.3,0.6,0.4,0.9c0.1,0.3,0.1,0.6,0.1,0.9c0,0.5-0.1,1-0.3,1.5c-0.2,0.5-0.5,0.9-0.8,1.2
					c-0.4,0.4-0.8,0.6-1.2,0.8C143.2,108.9,142.7,109,142.1,109z M140.4,97.8h-2.5v2.8h2.5c0.4,0,0.7-0.1,1-0.4
					c0.3-0.3,0.4-0.6,0.4-1s-0.1-0.7-0.4-1C141.1,98,140.8,97.8,140.4,97.8z M140.5,103.2h-2.6v2.8h2.6c0.4,0,0.7-0.1,1-0.4
					s0.4-0.6,0.4-1c0-0.4-0.1-0.7-0.4-1C141.2,103.4,140.9,103.2,140.5,103.2z"/>
				<path class="st0" d="M147.9,109V95h3.8v14H147.9z"/>
				<path class="st0" d="M165.3,98.5h-3.8V109h-3.8V98.5h-3.8l-0.3-0.3V95h12v3.2L165.3,98.5z"/>
				<path class="st0" d="M173.9,109l-0.7-1.9h-4.3l-0.7,1.9h-3.9l5.2-14h3.3l5.2,14H173.9z M171,100.1l-1.1,3.7h2.2L171,100.1z"/>
				<path class="st0" d="M184.8,109.4c-1,0-2-0.2-2.9-0.6c-0.9-0.4-1.7-0.9-2.3-1.6c-0.7-0.7-1.2-1.5-1.6-2.4
					c-0.4-0.9-0.6-1.8-0.6-2.9s0.2-2,0.6-2.9c0.4-0.9,0.9-1.7,1.6-2.4c0.7-0.7,1.4-1.2,2.3-1.6c0.9-0.4,1.9-0.6,2.9-0.6
					c0.9,0,1.8,0.2,2.7,0.5c0.9,0.3,1.7,0.8,2.4,1.5l-2.9,2.5c-0.7-0.5-1.4-0.7-2.2-0.7c-0.5,0-1,0.1-1.4,0.3
					c-0.4,0.2-0.8,0.5-1.1,0.8c-0.3,0.3-0.6,0.7-0.7,1.2c-0.2,0.4-0.3,0.9-0.3,1.4c0,0.5,0.1,1,0.3,1.4c0.2,0.4,0.4,0.8,0.7,1.2
					c0.3,0.3,0.7,0.6,1.1,0.8c0.4,0.2,0.9,0.3,1.4,0.3c0.6,0,1.1-0.1,1.6-0.4c0.5-0.3,0.9-0.6,1.3-1.1l3,2.4
					c-0.7,0.9-1.6,1.6-2.6,2.1C187,109.2,185.9,109.4,184.8,109.4z"/>
				<path class="st0" d="M198,109.4c-1,0-2-0.2-2.9-0.6s-1.7-0.9-2.4-1.6c-0.7-0.7-1.2-1.4-1.6-2.3c-0.4-0.9-0.6-1.9-0.6-2.9
					c0-1,0.2-2,0.6-2.9c0.4-0.9,0.9-1.7,1.6-2.3c0.7-0.7,1.5-1.2,2.4-1.6s1.9-0.6,2.9-0.6c1,0,2,0.2,2.9,0.6
					c0.9,0.4,1.7,0.9,2.4,1.6c0.7,0.7,1.2,1.4,1.6,2.3c0.4,0.9,0.6,1.9,0.6,2.9c0,1-0.2,2-0.6,2.9c-0.4,0.9-0.9,1.7-1.6,2.3
					c-0.7,0.7-1.5,1.2-2.4,1.6C200,109.2,199,109.4,198,109.4z M198,98.2c-0.5,0-1,0.1-1.5,0.3c-0.4,0.2-0.8,0.5-1.2,0.8
					c-0.3,0.3-0.6,0.8-0.8,1.2c-0.2,0.5-0.3,1-0.3,1.5c0,0.5,0.1,1,0.3,1.5s0.4,0.9,0.8,1.2c0.3,0.3,0.7,0.6,1.2,0.8
					c0.5,0.2,0.9,0.3,1.5,0.3s1-0.1,1.5-0.3s0.8-0.5,1.2-0.8c0.3-0.3,0.6-0.8,0.8-1.2c0.2-0.5,0.3-1,0.3-1.5c0-0.5-0.1-1-0.3-1.5
					c-0.2-0.5-0.4-0.9-0.8-1.2c-0.3-0.3-0.7-0.6-1.2-0.8S198.5,98.2,198,98.2z"/>
				<path class="st0" d="M215.8,109l-2.4-4.3h-2.4l0,4.3h-3.9V95h7c0.3,0,0.7,0.1,1,0.2s0.7,0.3,1,0.5c0.3,0.2,0.6,0.4,0.9,0.7
					c0.3,0.3,0.5,0.5,0.7,0.8c0.2,0.3,0.4,0.8,0.5,1.2s0.2,0.9,0.2,1.3c0,0.7-0.2,1.3-0.5,1.9c-0.3,0.6-0.8,1.1-1.4,1.5l3.3,5.8
					H215.8z M213.1,98.2h-2.2v3h2.2c0.2,0,0.4,0,0.6-0.1c0.2-0.1,0.4-0.2,0.5-0.3c0.1-0.1,0.3-0.3,0.3-0.5c0.1-0.2,0.1-0.4,0.1-0.6
					s0-0.4-0.1-0.6c-0.1-0.2-0.2-0.3-0.3-0.5c-0.1-0.1-0.3-0.2-0.5-0.3C213.5,98.2,213.3,98.2,213.1,98.2z"/>
				<path class="st0" d="M230.2,109l-0.7-1.9h-4.3l-0.7,1.9h-3.9l5.2-14h3.3l5.2,14H230.2z M227.4,100.1l-1.1,3.7h2.2L227.4,100.1z"
					/>
				<path class="st0" d="M241.5,109V95h11.1v3.3h-7.5v2h7.1v3.3h-7.1v2h7.5v3.3H241.5z"/>
				<path class="st0" d="M255,109V95h3.9v10.5h7.3v3.5H255z"/>
				<path class="st0" d="M267.8,109V95h11.1v3.3h-7.5v2h7.1v3.3h-7.1v2h7.5v3.3H267.8z"/>
				<path class="st0" d="M287.1,109.4c-1,0-2-0.2-2.9-0.6c-0.9-0.4-1.7-0.9-2.3-1.6c-0.7-0.7-1.2-1.5-1.6-2.4
					c-0.4-0.9-0.6-1.8-0.6-2.9s0.2-2,0.6-2.9c0.4-0.9,0.9-1.7,1.6-2.4c0.7-0.7,1.4-1.2,2.3-1.6c0.9-0.4,1.9-0.6,2.9-0.6
					c0.9,0,1.8,0.2,2.7,0.5s1.7,0.8,2.4,1.5l-2.9,2.5c-0.7-0.5-1.4-0.7-2.2-0.7c-0.5,0-1,0.1-1.4,0.3c-0.4,0.2-0.8,0.5-1.1,0.8
					c-0.3,0.3-0.6,0.7-0.7,1.2c-0.2,0.4-0.3,0.9-0.3,1.4c0,0.5,0.1,1,0.3,1.4c0.2,0.4,0.4,0.8,0.7,1.2c0.3,0.3,0.7,0.6,1.1,0.8
					c0.4,0.2,0.9,0.3,1.4,0.3c0.6,0,1.1-0.1,1.6-0.4c0.5-0.3,0.9-0.6,1.3-1.1l3,2.4c-0.7,0.9-1.6,1.6-2.6,2.1
					C289.3,109.2,288.3,109.4,287.1,109.4z"/>
				<path class="st0" d="M305.2,98.5h-3.8V109h-3.8V98.5h-3.8l-0.3-0.3V95h12v3.2L305.2,98.5z"/>
				<path class="st0" d="M315.1,109l-2.4-4.3h-2.4l0,4.3h-3.9V95h7c0.3,0,0.7,0.1,1,0.2s0.7,0.3,1,0.5c0.3,0.2,0.6,0.4,0.9,0.7
					c0.3,0.3,0.5,0.5,0.7,0.8c0.2,0.3,0.4,0.8,0.5,1.2s0.2,0.9,0.2,1.3c0,0.7-0.2,1.3-0.5,1.9c-0.3,0.6-0.8,1.1-1.3,1.5l3.3,5.8
					H315.1z M312.4,98.2h-2.2v3h2.2c0.2,0,0.4,0,0.6-0.1c0.2-0.1,0.4-0.2,0.5-0.3c0.1-0.1,0.3-0.3,0.3-0.5s0.1-0.4,0.1-0.6
					s0-0.4-0.1-0.6s-0.2-0.3-0.3-0.5c-0.1-0.1-0.3-0.2-0.5-0.3C312.8,98.2,312.6,98.2,312.4,98.2z"/>
				<path class="st0" d="M326.6,109.4c-1,0-2-0.2-2.9-0.6s-1.7-0.9-2.4-1.6s-1.2-1.4-1.6-2.3c-0.4-0.9-0.6-1.9-0.6-2.9
					c0-1,0.2-2,0.6-2.9c0.4-0.9,0.9-1.7,1.6-2.3s1.5-1.2,2.4-1.6s1.9-0.6,2.9-0.6c1,0,2,0.2,2.9,0.6c0.9,0.4,1.7,0.9,2.4,1.6
					s1.2,1.4,1.6,2.3c0.4,0.9,0.6,1.9,0.6,2.9c0,1-0.2,2-0.6,2.9s-0.9,1.7-1.6,2.3s-1.5,1.2-2.4,1.6
					C328.5,109.2,327.6,109.4,326.6,109.4z M326.6,98.2c-0.5,0-1,0.1-1.5,0.3s-0.8,0.5-1.2,0.8c-0.3,0.3-0.6,0.8-0.8,1.2
					c-0.2,0.5-0.3,1-0.3,1.5c0,0.5,0.1,1,0.3,1.5c0.2,0.5,0.4,0.9,0.8,1.2c0.3,0.3,0.7,0.6,1.2,0.8s0.9,0.3,1.5,0.3s1-0.1,1.5-0.3
					s0.8-0.5,1.2-0.8c0.3-0.3,0.6-0.8,0.8-1.2c0.2-0.5,0.3-1,0.3-1.5c0-0.5-0.1-1-0.3-1.5c-0.2-0.5-0.4-0.9-0.8-1.2
					c-0.3-0.3-0.7-0.6-1.2-0.8S327.1,98.2,326.6,98.2z"/>
				<path class="st0" d="M344,109l-4.8-7.5v7.5h-3.7V95h3.7l4.9,7.5V95h3.7V109H344z"/>
				<path class="st0" d="M349.9,109V95h3.8v14H349.9z"/>
				<path class="st0" d="M362.5,109.4c-1,0-2-0.2-2.9-0.6s-1.7-0.9-2.3-1.6s-1.2-1.5-1.6-2.4c-0.4-0.9-0.6-1.8-0.6-2.9
					s0.2-2,0.6-2.9c0.4-0.9,0.9-1.7,1.6-2.4s1.4-1.2,2.3-1.6s1.9-0.6,2.9-0.6c0.9,0,1.8,0.2,2.7,0.5c0.9,0.3,1.7,0.8,2.4,1.5
					l-2.9,2.5c-0.7-0.5-1.4-0.7-2.2-0.7c-0.5,0-1,0.1-1.4,0.3c-0.4,0.2-0.8,0.5-1.1,0.8c-0.3,0.3-0.6,0.7-0.7,1.2
					c-0.2,0.4-0.3,0.9-0.3,1.4c0,0.5,0.1,1,0.3,1.4c0.2,0.4,0.4,0.8,0.7,1.2c0.3,0.3,0.7,0.6,1.1,0.8c0.4,0.2,0.9,0.3,1.4,0.3
					c0.6,0,1.1-0.1,1.6-0.4c0.5-0.3,0.9-0.6,1.3-1.1l3,2.4c-0.7,0.9-1.6,1.6-2.6,2.1C364.7,109.2,363.7,109.4,362.5,109.4z"/>
				<path class="st0" d="M378.5,109l-0.7-1.9h-4.3l-0.7,1.9h-3.9l5.2-14h3.3l5.2,14H378.5z M375.7,100.1l-1.1,3.7h2.2L375.7,100.1z"
					/>
				<path class="st0" d="M396.1,109h-6.2V95h6.2c1,0,1.9,0.2,2.7,0.5c0.9,0.4,1.6,0.9,2.2,1.5c0.6,0.6,1.1,1.4,1.5,2.2
					c0.4,0.9,0.5,1.8,0.5,2.7s-0.2,1.9-0.5,2.7c-0.4,0.9-0.9,1.6-1.5,2.2c-0.6,0.6-1.4,1.1-2.2,1.5C398,108.8,397.1,109,396.1,109z
					 M395.7,98.4h-2.1v7.2h2.1c0.5,0,1-0.1,1.4-0.3c0.4-0.2,0.8-0.4,1.1-0.8s0.6-0.7,0.8-1.1c0.2-0.4,0.3-0.9,0.3-1.4
					c0-0.5-0.1-1-0.3-1.4c-0.2-0.4-0.4-0.8-0.8-1.1s-0.7-0.6-1.1-0.8C396.7,98.5,396.2,98.4,395.7,98.4z"/>
				<path class="st0" d="M404.9,109V95H416v3.3h-7.5v2h7.1v3.3h-7.1v2h7.5v3.3H404.9z"/>
				<path class="st0" d="M434,109v-7.2l-3,4.9c0,0.1-0.1,0.1-0.2,0.1s-0.2,0-0.2,0c-0.1,0-0.2,0-0.2,0c-0.1,0-0.1-0.1-0.2-0.1
					l-3-4.9v7.2h-3.7V95h3.4c0.1,0,0.2,0.1,0.3,0.2l3.3,5.5l3.3-5.5c0.1-0.1,0.2-0.2,0.3-0.2h3.4v14H434z"/>
				<path class="st0" d="M440,109V95h3.8v14H440z"/>
				<path class="st0" d="M454.5,109l-4.8-7.5v7.5H446V95h3.7l4.9,7.5V95h3.7V109H454.5z"/>
				<path class="st0" d="M469,109l-0.7-1.9H464l-0.7,1.9h-3.9l5.2-14h3.3l5.2,14H469z M466.2,100.1l-1.1,3.7h2.2L466.2,100.1z"/>
			</g>
			<g>
				<path class="st0" d="M162,86.2h-28.1V36.7h25.9c0.9,0,1.9,0.1,2.9,0.4c1,0.2,2,0.6,2.9,1c1,0.4,1.9,1,2.7,1.6
					c0.8,0.6,1.5,1.3,2.1,2c1.1,1.3,1.9,2.7,2.5,4.3c0.6,1.6,0.9,3.2,0.9,4.8c0,1.9-0.4,3.8-1.1,5.5c-0.8,1.8-1.9,3.3-3.3,4.6
					c0.9,0.6,1.8,1.3,2.6,2.2c0.8,0.9,1.5,1.8,2,2.8c0.6,1,1,2.1,1.3,3.2c0.3,1.1,0.5,2.2,0.5,3.3c0,1.9-0.4,3.6-1.1,5.3
					c-0.7,1.7-1.7,3.1-2.9,4.4c-1.3,1.3-2.7,2.3-4.4,3S163.9,86.2,162,86.2z M155.8,46.7h-8.9v10.1h8.9c1.4,0,2.5-0.5,3.5-1.5
					c1-1,1.5-2.2,1.5-3.5c0-1.4-0.5-2.5-1.5-3.5C158.3,47.2,157.1,46.7,155.8,46.7z M156.2,65.7h-9.3v10h9.3c1.4,0,2.6-0.5,3.6-1.5
					c1-1,1.5-2.2,1.5-3.6c0-1.4-0.5-2.5-1.5-3.5C158.8,66.2,157.6,65.7,156.2,65.7z"/>
				<path class="st0" d="M182.3,86.2V36.7h13.3v49.5H182.3z"/>
				<path class="st0" d="M244.3,48.9h-13.6v37.3h-13.5V48.9h-13.6l-0.9-0.9V36.7h42.4v11.4L244.3,48.9z"/>
				<path class="st0" d="M274.5,86.2l-2.6-6.8h-15.2l-2.6,6.8h-14l18.3-49.5h11.7l18.3,49.5H274.5z M264.3,54.8l-4,13.1h7.8
					L264.3,54.8z"/>
				<path class="st0" d="M330.8,86.2V60.8l-10.6,17.5c-0.1,0.3-0.3,0.4-0.6,0.5s-0.6,0.1-0.8,0.1c-0.3,0-0.5,0-0.8-0.1
					c-0.3-0.1-0.5-0.3-0.6-0.5l-10.6-17.5v25.5h-13V36.7h12.1c0.4,0,0.8,0.2,1.1,0.6l11.7,19.6l11.8-19.6c0.3-0.4,0.6-0.6,1-0.6
					h12.2v49.5H330.8z"/>
				<path class="st0" d="M351.9,86.2V36.7h13.3v49.5H351.9z"/>
				<path class="st0" d="M403.6,86.1l-17.2-26.4v26.4h-13.2V36.7h13.1l17.2,26.7V36.7h13.3v49.4H403.6z"/>
				<path class="st0" d="M455,86.2l-2.6-6.8h-15.2l-2.6,6.8h-14L439,36.7h11.7l18.3,49.5H455z M444.8,54.8l-4,13.1h7.8L444.8,54.8z"
					/>
			</g>
		</g>
		<path class="st1" d="M114.7,56.5v56.6h-0.4c-11.3-2.5-90.6-22.6-51.3-82.2l-0.9-2.2l1.2,1.7l6.4,7.2l4.3-13l4.3-13.1L65,14.3
			l-13.5,2.8l7.1,8l-2.9-1.9c-36.3,26.9-21.2,80.3-18.1,89.9h-35V56.5c0-30.8,25.2-56.1,56.1-56.1c15.4,0,29.4,6.3,39.6,16.5
			C108.4,27.1,114.7,41.1,114.7,56.5z"/>
	</g>
	<linearGradient id="SVGID_1_" gradientUnits="userSpaceOnUse" x1="37.5777" y1="55.1949" x2="113.91" y2="80.639">
		<stop  offset="0" style="stop-color:#FFFFFF;stop-opacity:0"/>
		<stop  offset="1" style="stop-color:#222220"/>
	</linearGradient>
	<path class="st2" d="M102.2,21.2c-1.2-1.5-2.5-3-3.9-4.3C88.1,6.7,74.1,0.4,58.7,0.4C27.8,0.4,2.6,25.7,2.6,56.5v51.8
		c10.6-3.4,21-7.9,30.8-13.2c-3.3-20.7-3.3-52.9,22.3-71.9l2.9,1.9l-7.1-8L65,14.3l13.4-2.8l-4.3,13.1l-4.3,13l-6.4-7.2l-1.2-1.7
		l0.9,2.2c-13.6,20.6-13,36.5-6,48.5C76.8,64,92.9,44.2,102.2,21.2z"/>
	<path class="st1" d="M2.6,113.1h35c-0.9-2.8-2.8-9.4-4.2-18c-9.8,5.4-20.2,9.8-30.8,13.2V113.1z"/>
	<path class="st1" d="M102.2,21.2C92.9,44.2,76.8,64,57.1,79.5c13.3,22.8,49.8,32,57.3,33.6h0.4V56.5
		C114.7,43.2,110,30.9,102.2,21.2z"/>
	<linearGradient id="SVGID_2_" gradientUnits="userSpaceOnUse" x1="-44.8328" y1="20.5241" x2="43.8339" y2="138.5241">
		<stop  offset="0" style="stop-color:#FFFFFF;stop-opacity:0"/>
		<stop  offset="1" style="stop-color:#222220"/>
	</linearGradient>
	<path class="st3" d="M2.6,113.1h35c-0.9-2.8-2.8-9.4-4.2-18c-9.8,5.4-20.2,9.8-30.8,13.2V113.1z"/>
	<linearGradient id="SVGID_3_" gradientUnits="userSpaceOnUse" x1="13.3307" y1="-37.6892" x2="101.9974" y2="80.3108">
		<stop  offset="0" style="stop-color:#FFFFFF;stop-opacity:0"/>
		<stop  offset="1" style="stop-color:#222220"/>
	</linearGradient>
	<path class="st4" d="M102.2,21.2C92.9,44.2,76.8,64,57.1,79.5c13.3,22.8,49.8,32,57.3,33.6h0.4V56.5
		C114.7,43.2,110,30.9,102.2,21.2z"/>
</g>
</svg>
