<?xml version="1.0" encoding="utf-8"?>
<!-- Generator: Adobe Illustrator 20.0.0, SVG Export Plug-In . SVG Version: 6.00 Build 0)  -->
<svg version="1.1"
	 id="svg4135" inkscape:version="0.48.0 r9654" sodipodi:docname="fms.svg" xmlns:cc="http://creativecommons.org/ns#" xmlns:dc="http://purl.org/dc/elements/1.1/" xmlns:inkscape="http://www.inkscape.org/namespaces/inkscape" xmlns:rdf="http://www.w3.org/1999/02/22-rdf-syntax-ns#" xmlns:sodipodi="http://sodipodi.sourceforge.net/DTD/sodipodi-0.dtd" xmlns:svg="http://www.w3.org/2000/svg"
	 xmlns="http://www.w3.org/2000/svg" xmlns:xlink="http://www.w3.org/1999/xlink" x="0px" y="0px" width="278.4px" height="192px"
	 viewBox="0 0 278.4 192" enable-background="new 0 0 278.4 192" xml:space="preserve">
<g id="layer1" transform="translate(-159,-118.36218)" inkscape:groupmode="layer" inkscape:label="Layer 1">
	<path id="path3141" inkscape:connector-curvature="0" fill="#08080D" d="M298.269,134.079l6.888,2.432l5.295-2.823l-0.369-1.07
		l-12.194,0.383L298.269,134.079L298.269,134.079z M356.194,206.013c0-9.992,0.197-15.135,0.197-22.859
		c0-11.945-6.781-16.475-15.758-16.475c-8.172,0-14.155,3.809-17.547,9.471h-0.197c-2.497-6.897-8.283-9.471-14.763-9.471
		c-6.082,0-13.064,3.396-16.854,8.236l-0.096-0.102c-0.101-2.679-0.987-5.871-3.99-5.871h-9.693l2.955-6.357l10.389-24.39
		l-0.258,0.814c3.561-7.125,8.073-10.21,12.345-10.928l-0.445-0.045c6.991-0.843,9.378,1.546,9.378,1.546l2.665,2.973
		c3.105,0.048,14.094,0.771,15.712,5.413c1.617,4.639-3.474,5.442-3.474,5.442s1.319-2.743-0.974-3.729
		c-2.293-0.984-13.125,2.109-13.125,2.109s1.965,1.783,6.894,0.063c2.771-0.963,4.617,0.671,4.617,0.671l-0.818,3.696
		c0,0,11.629-1.614,9.151-8.718c-2.78-7.98-16.522-7.74-16.522-7.74l-3.095-3.303c0,0-7.589-3.363-16.995-0.143
		c-8.405,3.668-16.095,17.973-22.071,30.812l-1.466,3.117l-4.041,8.695h-31.527l-1.071,2.481l31.479-0.075L255.1,197.403
		c-11.634,25.063-14.311,33.342-20.579,31.527c-3.39-0.981-6.513-5.844-9.122-6.6c-2.743-0.79-6.26,1.587-6.486,2.367
		c-0.339,1.176,3.059,6.543,8.021,7.977c4.566,1.323,11.049-0.057,16.23-3.788c6.605-4.74,11.363-10.434,18.204-25.283
		l15.015-32.275l6.116-0.014c1.895,1.645,2.097,5.146,2.097,11.839v11.223c0,14.413-0.597,17.605-1.299,19.047
		c-1.595,0.924-4.384,1.232-7.776,1.232h-2.396v2.212c6.082,0,14.562-0.253,18.948,0.158c-0.303-3.396-0.699-7.102-0.699-22.648
		v-12.559c0-5.562,6.48-11.124,13.557-11.124c8.783,0,12.069,5.25,12.069,14.932v7.102c0,16.062-0.594,19.254-1.293,20.695
		c-1.595,0.924-4.386,1.232-7.782,1.232v1.857c3.99,0,8.18-0.055,12.666-0.055c4.491,0,8.875,0.055,12.27,0.055v-1.857
		c-3.395,0-6.186-0.307-7.779-1.232c-0.701-1.441-1.297-4.633-1.297-21.105v-10.501c0-5.562,6.478-11.124,13.56-11.124
		c8.776,0,12.065,5.25,12.065,14.932c0,11.117-0.397,16.061-0.397,23.266c0,7.208,4.971,7.62,24.445,7.62l1.422-1.857
		C358.732,214.656,356.194,212.601,356.194,206.013"/>
	<path id="path3089" inkscape:connector-curvature="0" fill="#08080D" d="M165.269,254.685c0-5.787,0-6.827-0.075-8.013
		c-0.072-1.258-0.37-1.854-1.593-2.113c-0.298-0.074-0.928-0.111-1.263-0.111c-0.148,0-0.294-0.075-0.294-0.222
		c0-0.222,0.183-0.297,0.591-0.297c0.855,0,1.855,0,2.671,0.035l1.521,0.078c0.741,0.036,8.271,0,9.124-0.037
		c0.705-0.04,1.298-0.04,1.63-0.148c0.222-0.076,0.37-0.225,0.52-0.225c0.147,0,0.221,0.148,0.221,0.333
		c0,0.262-0.183,0.706-0.297,1.747c-0.035,0.369-0.111,2.001-0.186,2.445c-0.036,0.188-0.11,0.408-0.294,0.408
		c-0.186,0-0.261-0.184-0.261-0.447c0-0.296-0.111-0.923-0.335-1.408c-0.221-0.48-1.074-1.146-2.52-1.185l-5.712-0.11
		c-0.222,0-0.335,0.11-0.335,0.406v10.236c0,0.222,0.036,0.335,0.261,0.335l4.746-0.037c0.632,0,1.152,0,1.669-0.037
		c0.891-0.073,1.372-0.186,1.706-0.665c0.148-0.189,0.26-0.374,0.408-0.374s0.186,0.11,0.186,0.298c0,0.222-0.186,0.851-0.297,2.076
		c-0.075,0.74-0.148,2.223-0.148,2.486c0,0.333,0,0.702-0.258,0.702c-0.188,0-0.261-0.148-0.261-0.333
		c-0.037-0.369-0.073-0.891-0.222-1.335c-0.184-0.517-0.779-1.188-1.93-1.335c-0.926-0.111-4.969-0.111-5.598-0.111
		c-0.188,0-0.261,0.074-0.261,0.332v3.156c0,3.56,0,6.492,0.184,8.047c0.112,1.078,0.335,1.893,1.446,2.042
		c0.52,0.074,1.337,0.147,1.669,0.147c0.223,0,0.297,0.111,0.297,0.224c0,0.186-0.184,0.296-0.594,0.296
		c-2.038,0-4.377-0.11-4.56-0.11c-0.186,0-2.523,0.11-3.635,0.11c-0.408,0-0.594-0.074-0.594-0.296c0-0.112,0.074-0.224,0.297-0.224
		c0.331,0,0.779-0.074,1.111-0.147c0.741-0.148,0.928-0.963,1.077-2.042c0.184-1.556,0.184-4.488,0.184-8.047L165.269,254.685
		L165.269,254.685z"/>
	<path id="path3097" inkscape:connector-curvature="0" fill="#08080D" d="M198.574,259.914c0,0.185,0.075,0.297,0.221,0.406
		c0.483,0.261,2.152,0.483,3.6,0.483c0.777,0,1.669-0.039,2.447-0.556c1.113-0.741,1.967-2.41,1.967-4.822
		c0-3.93-2.151-6.193-5.637-6.193c-0.966,0-2.004,0.111-2.339,0.183c-0.147,0.078-0.258,0.188-0.258,0.374L198.574,259.914
		L198.574,259.914z M195.756,257.244c0-4.898,0-5.787-0.075-6.789c-0.073-1.076-0.26-1.594-1.335-1.743
		c-0.26-0.035-0.818-0.074-1.115-0.074c-0.11,0-0.258-0.148-0.258-0.261c0-0.188,0.148-0.261,0.519-0.261
		c1.484,0,3.672,0.074,3.858,0.074c0.335,0,3.078-0.074,4.08-0.074c2.077,0,4.377,0.189,6.083,1.376
		c0.816,0.592,2.262,2.113,2.262,4.299c0,2.339-0.963,4.6-4.005,7.197c2.669,3.341,4.93,6.192,6.824,8.163
		c1.743,1.779,2.818,2.074,3.636,2.185c0.63,0.111,0.963,0.111,1.149,0.111s0.297,0.151,0.297,0.263c0,0.183-0.184,0.258-0.78,0.258
		h-2.038c-1.855,0-2.671-0.185-3.488-0.632c-1.41-0.74-2.595-2.26-4.451-4.637c-1.372-1.706-2.818-3.744-3.523-4.599
		c-0.148-0.148-0.223-0.185-0.444-0.185l-4.156-0.074c-0.145,0-0.221,0.074-0.221,0.258v0.744c0,3.04,0,5.488,0.147,6.788
		c0.111,0.928,0.297,1.518,1.299,1.667c0.444,0.075,1.15,0.148,1.447,0.148c0.221,0,0.258,0.151,0.258,0.263
		c0,0.148-0.147,0.258-0.52,0.258c-1.779,0-3.855-0.11-4.003-0.11c-0.037,0-2.226,0.11-3.228,0.11c-0.333,0-0.518-0.075-0.518-0.258
		c0-0.111,0.072-0.263,0.258-0.263c0.297,0,0.706-0.074,1.003-0.148c0.628-0.148,0.704-0.738,0.852-1.667
		c0.186-1.299,0.186-3.784,0.186-6.827V257.244L195.756,257.244z"/>
	<path id="path3093" inkscape:connector-curvature="0" fill="#08080D" d="M187.891,262.806c0,3.043,0,5.529,0.148,6.827
		c0.111,0.928,0.223,1.521,1.186,1.669c0.483,0.074,1.188,0.148,1.484,0.148c0.188,0,0.261,0.15,0.261,0.259
		c0,0.148-0.147,0.261-0.519,0.261c-1.818,0-3.932-0.112-4.081-0.112c-0.184,0-2.225,0.112-3.225,0.112
		c-0.333,0-0.52-0.075-0.52-0.261c0-0.11,0.076-0.259,0.26-0.259c0.297,0,0.706-0.075,1.002-0.148
		c0.63-0.148,0.742-0.741,0.854-1.669c0.148-1.297,0.184-3.783,0.184-6.827v-5.562c0-4.898,0-5.787-0.075-6.788
		c-0.072-1.077-0.333-1.559-1.036-1.704c-0.374-0.075-0.78-0.114-1.001-0.114c-0.15,0-0.262-0.148-0.262-0.26
		c0-0.188,0.152-0.262,0.52-0.262c1.076,0,3.115,0.075,3.3,0.075c0.15,0,2.264-0.075,3.264-0.075c0.372,0,0.52,0.075,0.52,0.262
		c0,0.111-0.148,0.26-0.26,0.26c-0.223,0-0.444,0-0.818,0.075c-0.889,0.184-1.076,0.632-1.148,1.743
		c-0.039,1.001-0.039,1.89-0.039,6.788L187.891,262.806L187.891,262.806z"/>
	<path id="path3101" inkscape:connector-curvature="0" fill="#08080D" d="M218.823,271.521c-0.445-0.22-0.483-0.333-0.483-1.184
		c0-1.557,0.148-2.82,0.188-3.342c0-0.333,0.072-0.517,0.258-0.517c0.184,0,0.296,0.111,0.296,0.369c0,0.259,0,0.708,0.111,1.154
		c0.52,2.298,2.969,3.116,5.156,3.116c3.228,0,4.898-1.818,4.898-4.195c0-2.259-1.224-3.335-4.117-5.486l-1.482-1.115
		c-3.525-2.633-4.676-4.56-4.676-6.75c0-3.708,2.93-5.934,7.233-5.934c1.298,0,2.598,0.184,3.376,0.369
		c0.628,0.148,0.889,0.148,1.148,0.148c0.261,0,0.336,0.037,0.336,0.222c0,0.152-0.15,1.188-0.15,3.342
		c0,0.479-0.036,0.702-0.26,0.702c-0.222,0-0.26-0.148-0.297-0.406c-0.036-0.37-0.297-1.227-0.48-1.559
		c-0.223-0.37-1.301-1.559-4.23-1.559c-2.372,0-4.339,1.188-4.339,3.414c0,2.003,1.002,3.152,4.229,5.34l0.927,0.63
		c3.969,2.707,5.342,4.897,5.342,7.605c0,1.854-0.704,3.857-3.04,5.378c-1.372,0.889-3.413,1.112-5.191,1.112
		C222.05,272.375,220.158,272.153,218.823,271.521"/>
	<path id="path3105" inkscape:connector-curvature="0" fill="#08080D" d="M248.046,262.806c0,3.043,0,5.529,0.148,6.827
		c0.111,0.928,0.26,1.521,1.262,1.669c0.445,0.074,1.186,0.148,1.484,0.148c0.222,0,0.26,0.15,0.26,0.259
		c0,0.148-0.147,0.261-0.519,0.261c-1.782,0-3.857-0.112-4.041-0.112c-0.152,0-2.413,0.112-3.376,0.112
		c-0.372,0-0.52-0.075-0.52-0.261c0-0.11,0.075-0.225,0.261-0.225c0.297,0,0.666-0.071,0.963-0.148
		c0.669-0.146,0.854-0.776,0.966-1.704c0.147-1.297,0.147-3.783,0.147-6.827v-13.24l-4.71,0.074
		c-2.042,0.039-2.818,0.262-3.301,1.002c-0.37,0.558-0.406,0.78-0.519,1.002c-0.074,0.261-0.184,0.296-0.333,0.296
		c-0.075,0-0.222-0.074-0.222-0.258c0-0.333,0.667-3.152,0.704-3.411c0.075-0.188,0.222-0.597,0.333-0.597
		c0.223,0,0.557,0.261,1.446,0.374c0.927,0.11,2.19,0.145,2.562,0.145h12.314c1.074,0,1.816-0.075,2.335-0.145
		c0.483-0.076,0.779-0.15,0.927-0.15s0.148,0.186,0.148,0.374c0,0.962-0.111,3.225-0.111,3.596c0,0.26-0.148,0.408-0.297,0.408
		s-0.22-0.111-0.259-0.555l-0.037-0.333c-0.111-0.966-0.816-1.669-3.932-1.746l-4.08-0.074L248.046,262.806L248.046,262.806z"/>
	<path id="path3045" inkscape:connector-curvature="0" fill="#08080D" d="M214.599,298.997c-0.169-0.081-0.184-0.125-0.184-0.453
		c0-0.594,0.058-1.076,0.073-1.275c0-0.129,0.029-0.197,0.099-0.197c0.069,0,0.112,0.04,0.112,0.139c0,0.099,0,0.272,0.042,0.441
		c0.197,0.878,1.134,1.19,1.971,1.19c1.233,0,1.87-0.693,1.87-1.602c0-0.862-0.467-1.276-1.574-2.099l-0.568-0.424
		c-1.346-1.005-1.785-1.741-1.785-2.578c0-1.421,1.12-2.268,2.766-2.268c0.495,0,0.99,0.072,1.288,0.144
		c0.24,0.052,0.342,0.052,0.439,0.052c0.099,0,0.129,0.015,0.129,0.085c0,0.057-0.058,0.453-0.058,1.276
		c0,0.185-0.015,0.27-0.099,0.27s-0.099-0.056-0.112-0.156c-0.015-0.144-0.114-0.468-0.184-0.597
		c-0.085-0.141-0.498-0.594-1.617-0.594c-0.908,0-1.659,0.453-1.659,1.305c0,0.765,0.384,1.203,1.617,2.042l0.354,0.24
		c1.518,1.036,2.042,1.869,2.042,2.905c0,0.71-0.268,1.474-1.163,2.055c-0.525,0.342-1.302,0.426-1.983,0.426
		C215.834,299.326,215.111,299.242,214.599,298.997"/>
	<path id="path3057" inkscape:connector-curvature="0" fill="#08080D" d="M258.401,297.596c0.723-1.617,2.353-5.724,2.621-6.592
		c0.058-0.185,0.114-0.353,0.114-0.452c0-0.101-0.04-0.215-0.168-0.257c-0.144-0.042-0.285-0.042-0.426-0.042
		c-0.072,0-0.142-0.045-0.142-0.101c0-0.072,0.086-0.099,0.284-0.099c0.495,0,1.065,0.027,1.218,0.027
		c0.074,0,0.611-0.027,0.978-0.027c0.129,0,0.199,0.027,0.199,0.084s-0.042,0.115-0.142,0.115c-0.084,0-0.367,0-0.594,0.141
		c-0.172,0.114-0.367,0.285-0.696,1.105c-0.141,0.342-0.751,1.785-1.389,3.259c-0.765,1.758-1.319,3.061-1.6,3.657
		c-0.341,0.723-0.413,0.909-0.54,0.909c-0.141,0-0.227-0.158-0.466-0.738l-3.061-7.383c-0.283-0.681-0.454-0.81-0.867-0.909
		c-0.198-0.042-0.408-0.042-0.48-0.042c-0.071,0-0.099-0.071-0.099-0.115c0-0.071,0.128-0.084,0.326-0.084
		c0.596,0,1.305,0.027,1.46,0.027c0.128,0,0.681-0.027,1.162-0.027c0.228,0,0.342,0.027,0.342,0.084s-0.045,0.115-0.128,0.115
		c-0.144,0-0.34,0.012-0.454,0.057c-0.129,0.056-0.143,0.126-0.143,0.213c0,0.156,0.156,0.523,0.34,1.005L258.401,297.596
		L258.401,297.596z"/>
	<path id="path3109" inkscape:connector-curvature="0" fill="#08080D" d="M298.635,267.181c0.148,1.341,0.406,3.417,2,3.935
		c1.077,0.333,2.042,0.333,2.415,0.333c0.183,0,0.293,0.037,0.293,0.188c0,0.222-0.33,0.333-0.779,0.333
		c-0.813,0-4.819-0.111-6.194-0.222c-0.85-0.074-1.041-0.188-1.041-0.374c0-0.148,0.075-0.222,0.264-0.258
		c0.183-0.039,0.224-0.666,0.148-1.336l-1.782-19.14h-0.11l-9.089,19.288c-0.78,1.632-0.889,1.966-1.225,1.966
		c-0.258,0-0.444-0.374-1.151-1.706c-0.961-1.819-4.152-8.235-4.34-8.605c-0.33-0.669-4.485-9.57-4.895-10.574h-0.147l-1.483,17.213
		c-0.037,0.595-0.037,1.262-0.037,1.89c0,0.56,0.408,1.039,0.966,1.151c0.629,0.153,1.185,0.186,1.407,0.186
		c0.15,0,0.297,0.072,0.297,0.188c0,0.258-0.22,0.333-0.666,0.333c-1.374,0-3.153-0.111-3.45-0.111
		c-0.333,0-2.116,0.111-3.117,0.111c-0.371,0-0.63-0.075-0.63-0.333c0-0.115,0.185-0.188,0.371-0.188c0.297,0,0.556,0,1.115-0.111
		c1.223-0.222,1.335-1.669,1.483-3.079l2.67-24.18c0.037-0.411,0.185-0.671,0.406-0.671c0.224,0,0.372,0.148,0.558,0.555
		l11.349,23.331l10.906-23.29c0.148-0.336,0.296-0.596,0.552-0.596c0.263,0,0.374,0.297,0.445,1.002L298.635,267.181
		L298.635,267.181z"/>
	<path id="path3049" inkscape:connector-curvature="0" fill="#08080D" d="M230.808,295.669c0,1.163,0,2.109,0.057,2.608
		c0.042,0.354,0.084,0.582,0.453,0.639c0.184,0.027,0.454,0.052,0.566,0.052c0.072,0,0.1,0.057,0.1,0.101
		c0,0.057-0.057,0.099-0.198,0.099c-0.695,0-1.503-0.042-1.56-0.042c-0.07,0-0.85,0.042-1.233,0.042
		c-0.128,0-0.198-0.029-0.198-0.099c0-0.043,0.027-0.101,0.098-0.101c0.114,0,0.271-0.025,0.384-0.052
		c0.243-0.057,0.283-0.285,0.326-0.639c0.057-0.5,0.07-1.446,0.07-2.608v-2.127c0-1.872,0-2.212-0.029-2.595
		c-0.029-0.408-0.124-0.594-0.396-0.651c-0.141-0.03-0.298-0.043-0.383-0.043c-0.055,0-0.101-0.057-0.101-0.099
		c0-0.071,0.057-0.099,0.201-0.099c0.41,0,1.189,0.028,1.26,0.028c0.057,0,0.865-0.028,1.247-0.028c0.144,0,0.201,0.028,0.201,0.099
		c0,0.042-0.057,0.099-0.102,0.099c-0.082,0-0.169,0-0.311,0.029c-0.342,0.072-0.411,0.243-0.439,0.666
		c-0.013,0.383-0.013,0.723-0.013,2.595L230.808,295.669L230.808,295.669z"/>
	<path id="path3053" inkscape:connector-curvature="0" fill="#08080D" d="M242.916,295.697c0,1.772,0.029,2.496,0.255,2.706
		c0.199,0.199,0.681,0.285,1.659,0.285c0.652,0,1.206-0.015,1.503-0.369c0.156-0.183,0.255-0.441,0.297-0.678
		c0.014-0.087,0.057-0.158,0.128-0.158c0.057,0,0.084,0.057,0.084,0.183c0,0.128-0.084,0.85-0.183,1.206
		c-0.085,0.282-0.128,0.324-0.795,0.324c-0.893,0-1.585-0.012-2.167-0.042c-0.566-0.015-0.992-0.029-1.362-0.029
		c-0.057,0-0.268,0-0.508,0.013c-0.257,0.015-0.527,0.029-0.725,0.029c-0.128,0-0.199-0.029-0.199-0.099
		c0-0.042,0.028-0.099,0.1-0.099c0.114,0,0.27-0.026,0.383-0.054c0.243-0.057,0.27-0.285,0.327-0.639
		c0.071-0.496,0.071-1.444,0.071-2.608v-2.127c0-1.869,0-2.212-0.029-2.595c-0.027-0.408-0.099-0.606-0.508-0.666
		c-0.101-0.013-0.315-0.027-0.426-0.027c-0.043,0-0.099-0.057-0.099-0.1c0-0.071,0.055-0.098,0.198-0.098
		c0.567,0,1.346,0.027,1.416,0.027c0.058,0,0.993-0.027,1.376-0.027c0.128,0,0.198,0.027,0.198,0.098
		c0,0.043-0.056,0.087-0.099,0.087c-0.084,0-0.268,0.013-0.411,0.027c-0.369,0.074-0.439,0.257-0.468,0.68
		c-0.014,0.383-0.014,0.726-0.014,2.595L242.916,295.697L242.916,295.697z"/>
	<path id="path3113" inkscape:connector-curvature="0" fill="#08080D" d="M317.473,261.879c0.146,0,0.146-0.074,0.108-0.224
		l-3.228-8.641c-0.181-0.483-0.369-0.483-0.555,0l-3.04,8.641c-0.04,0.15,0,0.224,0.108,0.224H317.473L317.473,261.879z
		 M313.836,248.75c0.408-1.04,0.556-1.224,0.779-1.224c0.333,0,0.445,0.444,0.779,1.15c0.591,1.335,5.822,14.352,7.824,19.138
		c1.19,2.819,2.081,3.227,2.784,3.448c0.482,0.151,0.965,0.186,1.301,0.186c0.181,0,0.406,0.072,0.406,0.261
		c0,0.185-0.374,0.258-0.742,0.258c-0.483,0-2.892,0-5.157-0.074c-0.629-0.036-1.146-0.036-1.146-0.222
		c0-0.151,0.075-0.151,0.22-0.224c0.183-0.075,0.519-0.333,0.297-0.85l-2.932-7.236c-0.073-0.148-0.108-0.186-0.297-0.186h-7.526
		c-0.15,0-0.261,0.075-0.336,0.261l-1.853,5.044c-0.297,0.779-0.486,1.557-0.486,2.116c0,0.627,0.558,0.85,1.116,0.85h0.297
		c0.258,0,0.33,0.111,0.33,0.261c0,0.185-0.181,0.258-0.478,0.258c-0.779,0-2.562-0.11-2.932-0.11c-0.333,0-1.966,0.11-3.3,0.11
		c-0.406,0-0.627-0.074-0.627-0.258c0-0.15,0.148-0.261,0.293-0.261c0.225,0,0.708-0.035,0.965-0.075
		c1.485-0.185,2.116-1.297,2.746-2.892L313.836,248.75L313.836,248.75z"/>
	<path id="path3121" inkscape:connector-curvature="0" fill="#08080D" d="M343.241,257.244c0-4.899,0-5.787-0.072-6.789
		c-0.073-1.076-0.261-1.593-1.333-1.743c-0.263-0.036-0.816-0.074-1.116-0.074c-0.107,0-0.255-0.148-0.255-0.261
		c0-0.186,0.148-0.261,0.517-0.261c1.482,0,3.6,0.075,3.781,0.075c0.22,0,7.047,0.039,7.791,0c0.627-0.037,1.225-0.145,1.483-0.186
		c0.148-0.036,0.293-0.148,0.445-0.148c0.108,0,0.146,0.148,0.146,0.297c0,0.223-0.183,0.596-0.259,1.484
		c-0.039,0.298-0.111,1.708-0.183,2.081c-0.037,0.147-0.148,0.33-0.298,0.33c-0.185,0-0.257-0.147-0.257-0.405
		c0-0.222-0.042-0.744-0.19-1.115c-0.22-0.518-0.553-0.741-2.336-0.964c-0.555-0.071-4.338-0.11-4.708-0.11
		c-0.148,0-0.189,0.11-0.189,0.333v8.567c0,0.225,0,0.335,0.189,0.335c0.409,0,4.708,0,5.451-0.072
		c0.781-0.075,1.262-0.111,1.593-0.447c0.227-0.224,0.374-0.408,0.487-0.408c0.11,0,0.181,0.075,0.181,0.259
		c0,0.185-0.181,0.707-0.258,1.743c-0.072,0.632-0.148,1.819-0.148,2.042c0,0.259-0.072,0.592-0.297,0.592
		c-0.148,0-0.225-0.111-0.225-0.296c0-0.297,0-0.63-0.146-1.041c-0.112-0.443-0.406-0.815-1.671-0.963
		c-0.891-0.11-4.377-0.147-4.932-0.147c-0.185,0-0.225,0.111-0.225,0.22v2.634c0,1.076-0.032,4.749,0,5.379
		c0.076,2.113,0.671,2.523,3.897,2.523c0.855,0,2.41,0,3.264-0.333c0.852-0.374,1.297-0.928,1.483-2.19
		c0.076-0.369,0.148-0.48,0.336-0.48c0.183,0,0.217,0.259,0.217,0.48c0,0.224-0.257,2.375-0.441,3.04
		c-0.225,0.818-0.553,0.818-1.816,0.818c-2.449,0-4.344-0.075-5.676-0.11c-1.372-0.075-2.224-0.075-2.709-0.075
		c-0.076,0-0.703,0-1.41,0.036c-0.63,0.039-1.37,0.074-1.892,0.074c-0.332,0-0.519-0.074-0.519-0.258
		c0-0.111,0.076-0.261,0.261-0.261c0.297,0,0.707-0.112,1-0.148c0.632-0.111,0.703-0.741,0.852-1.668
		c0.185-1.299,0.185-3.784,0.185-6.827L343.241,257.244L343.241,257.244z"/>
	<path id="path3065" inkscape:connector-curvature="0" fill="#08080D" d="M287.569,294.562c0,0.071,0.028,0.112,0.085,0.156
		c0.183,0.101,0.823,0.183,1.375,0.183c0.298,0,0.638-0.012,0.936-0.211c0.426-0.282,0.751-0.919,0.751-1.844
		c0-1.501-0.827-2.366-2.157-2.366c-0.366,0-0.763,0.043-0.892,0.071c-0.057,0.03-0.099,0.071-0.099,0.141L287.569,294.562
		L287.569,294.562z M286.494,293.542c0-1.872,0-2.212-0.03-2.595c-0.029-0.408-0.101-0.608-0.509-0.666
		c-0.102-0.015-0.312-0.029-0.424-0.029c-0.046,0-0.104-0.057-0.104-0.099c0-0.071,0.057-0.099,0.198-0.099
		c0.572,0,1.404,0.029,1.476,0.029c0.13,0,1.176-0.029,1.561-0.029c0.79,0,1.671,0.071,2.323,0.526
		c0.314,0.225,0.866,0.806,0.866,1.642c0,0.896-0.371,1.757-1.53,2.751c1.018,1.275,1.883,2.366,2.605,3.117
		c0.668,0.681,1.077,0.795,1.389,0.839c0.24,0.039,0.367,0.039,0.438,0.039c0.074,0,0.115,0.057,0.115,0.101
		c0,0.071-0.07,0.097-0.296,0.097h-0.78c-0.712,0-1.02-0.07-1.333-0.237c-0.542-0.285-0.993-0.867-1.703-1.773
		c-0.523-0.654-1.077-1.431-1.344-1.758c-0.057-0.059-0.085-0.072-0.172-0.072l-1.587-0.027c-0.057,0-0.085,0.027-0.085,0.099v0.282
		c0,1.164,0,2.099,0.057,2.596c0.042,0.354,0.114,0.582,0.496,0.639c0.169,0.029,0.438,0.052,0.552,0.052
		c0.084,0,0.102,0.057,0.102,0.101c0,0.057-0.058,0.097-0.201,0.097c-0.681,0-1.474-0.04-1.531-0.04c-0.015,0-0.848,0.04-1.232,0.04
		c-0.129,0-0.197-0.027-0.197-0.097c0-0.043,0.027-0.101,0.096-0.101c0.115,0,0.268-0.024,0.383-0.052
		c0.246-0.057,0.268-0.285,0.327-0.639c0.072-0.498,0.072-1.446,0.072-2.608V293.542L286.494,293.542z"/>
	<path id="path3061" inkscape:connector-curvature="0" fill="#08080D" d="M271.802,293.541c0-1.871,0-2.212-0.029-2.595
		c-0.029-0.408-0.099-0.608-0.512-0.666c-0.096-0.013-0.31-0.027-0.424-0.027c-0.042,0-0.099-0.059-0.099-0.101
		c0-0.071,0.057-0.099,0.198-0.099c0.569,0,1.377,0.029,1.448,0.029c0.082,0,2.691,0.013,2.976,0
		c0.241-0.015,0.465-0.057,0.569-0.068c0.055-0.018,0.111-0.057,0.168-0.057c0.042,0,0.055,0.057,0.055,0.11
		c0,0.085-0.07,0.229-0.099,0.567c-0.014,0.114-0.042,0.655-0.069,0.795c-0.015,0.057-0.055,0.128-0.112,0.128
		c-0.075,0-0.102-0.057-0.102-0.158c0-0.081-0.012-0.28-0.067-0.423c-0.087-0.199-0.216-0.284-0.896-0.371
		c-0.211-0.026-1.659-0.04-1.8-0.04c-0.057,0-0.071,0.04-0.071,0.128v3.273c0,0.087,0,0.129,0.071,0.129c0.156,0,1.8,0,2.083-0.029
		c0.297-0.03,0.483-0.043,0.612-0.171c0.083-0.084,0.141-0.155,0.181-0.155c0.045,0,0.072,0.028,0.072,0.1
		c0,0.068-0.072,0.266-0.101,0.664c-0.03,0.241-0.058,0.694-0.058,0.777c0,0.102-0.027,0.228-0.112,0.228
		c-0.055,0-0.083-0.04-0.083-0.112c0-0.115,0-0.243-0.057-0.396c-0.043-0.172-0.158-0.314-0.639-0.371
		c-0.339-0.042-1.672-0.055-1.885-0.055c-0.07,0-0.084,0.042-0.084,0.084v1.008c0,0.411-0.015,1.815,0,2.053
		c0.029,0.809,0.255,0.966,1.487,0.966c0.327,0,0.924,0,1.25-0.128c0.326-0.144,0.495-0.354,0.567-0.839
		c0.029-0.139,0.052-0.181,0.128-0.181c0.069,0,0.086,0.099,0.086,0.181c0,0.085-0.104,0.909-0.171,1.164
		c-0.086,0.31-0.213,0.31-0.694,0.31c-0.936,0-1.659-0.027-2.168-0.042c-0.526-0.029-0.85-0.029-1.035-0.029
		c-0.029,0-0.272,0-0.542,0.015c-0.24,0.013-0.523,0.028-0.721,0.028c-0.128,0-0.199-0.028-0.199-0.099
		c0-0.043,0.03-0.102,0.101-0.102c0.115,0,0.268-0.039,0.383-0.052c0.241-0.042,0.27-0.285,0.327-0.639
		c0.07-0.498,0.07-1.446,0.07-2.608L271.802,293.541L271.802,293.541z"/>
	<path id="path3069" inkscape:connector-curvature="0" fill="#08080D" d="M314.483,298.035c-1.218-1.048-1.512-2.422-1.512-3.574
		c0-0.806,0.294-2.208,1.4-3.285c0.751-0.724,1.884-1.29,3.798-1.29c0.493,0,1.209,0.042,1.816,0.139
		c0.466,0.087,0.864,0.169,1.275,0.185c0.128,0,0.156,0.057,0.156,0.129c0,0.099-0.028,0.243-0.058,0.681
		c-0.011,0.396-0.011,1.062-0.029,1.233c-0.011,0.185-0.069,0.257-0.141,0.257c-0.087,0-0.097-0.087-0.097-0.257
		c0-0.468-0.201-0.953-0.525-1.204c-0.443-0.367-1.35-0.668-2.456-0.668c-1.6,0-2.366,0.424-2.805,0.839
		c-0.922,0.848-1.119,1.926-1.119,3.147c0,2.307,1.83,4.363,4.494,4.363c0.935,0,1.557-0.071,2.055-0.567
		c0.27-0.268,0.441-0.779,0.48-1.007c0.027-0.126,0.045-0.169,0.132-0.169c0.054,0,0.11,0.087,0.11,0.169
		c0,0.085-0.168,1.135-0.297,1.545c-0.069,0.229-0.096,0.267-0.31,0.353c-0.51,0.199-1.444,0.27-2.253,0.27
		C316.722,299.323,315.464,298.885,314.483,298.035"/>
	<path id="path3073" inkscape:connector-curvature="0" fill="#08080D" d="M334.985,298.83c1.124,0,3.374-0.594,3.374-4.083
		c0-2.891-1.757-4.407-3.726-4.407c-2.086,0-3.59,1.305-3.59,3.926C331.043,297.073,332.734,298.83,334.985,298.83 M334.699,289.885
		c2.808,0,4.936,1.715,4.936,4.524c0,2.691-1.998,4.915-5.003,4.915c-3.42,0-4.876-2.566-4.876-4.734
		C329.756,292.648,331.259,289.885,334.699,289.885"/>
	<path id="path3117" inkscape:connector-curvature="0" fill="#08080D" d="M335.566,264.811c0,5.118-0.108,7.085-1.074,9.309
		c-0.702,1.596-2.148,3.078-4.786,4.823c-0.443,0.297-0.999,0.632-1.331,0.816c-0.042,0-0.114,0.037-0.225,0.037
		c-0.072,0-0.22-0.037-0.22-0.186c0-0.185,0.11-0.333,0.404-0.519c0.413-0.224,0.853-0.595,1.151-0.853
		c2.118-2.113,3.116-3.747,3.116-11.87v-9.123c0-4.899,0-5.788-0.074-6.789c-0.072-1.077-0.258-1.594-1.333-1.743
		c-0.261-0.036-0.815-0.075-1.116-0.075c-0.11,0-0.258-0.148-0.258-0.26c0-0.186,0.148-0.261,0.519-0.261
		c1.488,0,3.599,0.075,3.783,0.075c0.151,0,2.189-0.075,3.189-0.075c0.374,0,0.519,0.075,0.519,0.261c0,0.111-0.146,0.26-0.258,0.26
		c-0.222,0-0.443,0-0.811,0.075c-0.896,0.184-1.08,0.632-1.155,1.743c-0.037,1.001-0.037,1.89-0.037,6.789L335.566,264.811
		L335.566,264.811z"/>
	<path id="path3077" inkscape:connector-curvature="0" fill="#08080D" d="M350.201,294.562c0,0.071,0.029,0.112,0.087,0.156
		c0.181,0.101,0.819,0.183,1.374,0.183c0.3,0,0.641-0.012,0.936-0.211c0.422-0.282,0.753-0.919,0.753-1.844
		c0-1.501-0.827-2.366-2.159-2.366c-0.366,0-0.763,0.043-0.891,0.071c-0.057,0.03-0.101,0.071-0.101,0.141L350.201,294.562
		L350.201,294.562z M349.127,293.542c0-1.872,0-2.212-0.032-2.595c-0.029-0.408-0.098-0.608-0.512-0.666
		c-0.096-0.015-0.31-0.029-0.42-0.029c-0.046,0-0.105-0.057-0.105-0.099c0-0.071,0.059-0.099,0.199-0.099
		c0.572,0,1.402,0.029,1.476,0.029c0.125,0,1.177-0.029,1.561-0.029c0.79,0,1.671,0.071,2.322,0.526
		c0.314,0.225,0.867,0.806,0.867,1.642c0,0.896-0.371,1.757-1.53,2.751c1.018,1.275,1.881,2.366,2.607,3.117
		c0.666,0.681,1.074,0.795,1.388,0.839c0.238,0.039,0.366,0.039,0.438,0.039s0.115,0.057,0.115,0.101
		c0,0.071-0.072,0.097-0.297,0.097h-0.78c-0.712,0-1.025-0.07-1.331-0.237c-0.542-0.285-0.995-0.867-1.703-1.773
		c-0.525-0.654-1.078-1.431-1.347-1.758c-0.056-0.059-0.084-0.072-0.171-0.072l-1.587-0.027c-0.058,0-0.087,0.027-0.087,0.099v0.282
		c0,1.164,0,2.099,0.058,2.596c0.042,0.354,0.115,0.582,0.495,0.639c0.171,0.029,0.438,0.052,0.552,0.052
		c0.087,0,0.101,0.057,0.101,0.101c0,0.057-0.057,0.097-0.198,0.097c-0.682,0-1.474-0.04-1.53-0.04c-0.018,0-0.849,0.04-1.233,0.04
		c-0.126,0-0.199-0.027-0.199-0.097c0-0.043,0.027-0.101,0.099-0.101c0.115,0,0.267-0.024,0.381-0.052
		c0.241-0.057,0.272-0.285,0.328-0.639c0.072-0.498,0.072-1.446,0.072-2.608L349.127,293.542L349.127,293.542z"/>
	<path id="path3129" inkscape:connector-curvature="0" fill="#08080D" d="M388.078,262.806c0,3.043,0,5.529,0.148,6.827
		c0.112,0.928,0.261,1.521,1.264,1.669c0.445,0.074,1.185,0.148,1.482,0.148c0.228,0,0.261,0.15,0.261,0.259
		c0,0.148-0.148,0.261-0.517,0.261c-1.786,0-3.857-0.112-4.044-0.112c-0.148,0-2.41,0.112-3.378,0.112
		c-0.371,0-0.519-0.075-0.519-0.261c0-0.11,0.076-0.225,0.263-0.225c0.297,0,0.666-0.071,0.963-0.148
		c0.668-0.146,0.855-0.776,0.961-1.704c0.148-1.297,0.148-3.783,0.148-6.827v-13.24l-4.708,0.074
		c-2.04,0.039-2.823,0.262-3.298,1.002c-0.372,0.558-0.411,0.78-0.521,1.002c-0.076,0.261-0.185,0.296-0.333,0.296
		c-0.075,0-0.224-0.074-0.224-0.258c0-0.333,0.666-3.152,0.705-3.411c0.072-0.188,0.224-0.597,0.33-0.597
		c0.225,0,0.561,0.261,1.449,0.374c0.928,0.11,2.185,0.145,2.559,0.145h12.316c1.071,0,1.816-0.075,2.336-0.145
		c0.484-0.076,0.781-0.15,0.93-0.15c0.144,0,0.144,0.186,0.144,0.374c0,0.962-0.114,3.225-0.114,3.596
		c0,0.26-0.146,0.408-0.294,0.408s-0.225-0.111-0.258-0.555l-0.039-0.333c-0.107-0.966-0.815-1.669-3.93-1.746l-4.083-0.074
		L388.078,262.806L388.078,262.806z"/>
	<path id="path3125" inkscape:connector-curvature="0" fill="#08080D" d="M359.82,271.521c-0.445-0.22-0.48-0.333-0.48-1.184
		c0-1.557,0.147-2.82,0.183-3.342c0-0.333,0.076-0.517,0.259-0.517c0.186,0,0.298,0.111,0.298,0.369c0,0.259,0,0.708,0.108,1.154
		c0.519,2.298,2.969,3.116,5.154,3.116c3.229,0,4.899-1.818,4.899-4.195c0-2.259-1.224-3.335-4.119-5.486l-1.48-1.115
		c-3.525-2.633-4.674-4.56-4.674-6.75c0-3.708,2.928-5.934,7.233-5.934c1.297,0,2.598,0.184,3.375,0.369
		c0.629,0.148,0.891,0.148,1.152,0.148c0.257,0,0.33,0.037,0.33,0.222c0,0.152-0.148,1.188-0.148,3.342
		c0,0.479-0.036,0.702-0.261,0.702c-0.22,0-0.258-0.148-0.293-0.406c-0.037-0.37-0.298-1.227-0.483-1.559
		c-0.222-0.37-1.299-1.559-4.228-1.559c-2.371,0-4.338,1.188-4.338,3.414c0,2.003,0.999,3.152,4.228,5.34l0.928,0.63
		c3.965,2.707,5.337,4.897,5.337,7.605c0,1.854-0.702,3.857-3.043,5.378c-1.371,0.889-3.414,1.112-5.187,1.112
		C363.049,272.375,361.156,272.153,359.82,271.521"/>
	<path id="path3081" inkscape:connector-curvature="0" fill="#08080D" d="M365.533,293.542c0-1.871,0-2.212-0.032-2.595
		c-0.027-0.408-0.096-0.608-0.512-0.666c-0.096-0.013-0.309-0.027-0.422-0.027c-0.043,0-0.104-0.059-0.104-0.101
		c0-0.071,0.06-0.099,0.201-0.099c0.57,0,1.347,0.029,1.448,0.029c0.267,0,1.206-0.029,1.772-0.029c1.599,0,2.171,0.498,2.38,0.681
		c0.284,0.257,0.624,0.793,0.624,1.444c0,1.729-1.302,2.88-3.215,2.88c-0.077,0-0.286,0-0.355-0.017c-0.059,0-0.13-0.055-0.13-0.111
		c0-0.102,0.072-0.128,0.323-0.128c1.352,0,2.316-0.853,2.316-1.944c0-0.395-0.043-1.176-0.71-1.827
		c-0.652-0.652-1.405-0.582-1.686-0.582c-0.213,0-0.565,0.057-0.696,0.087c-0.069,0.014-0.097,0.096-0.097,0.225v4.905
		c0,1.163,0,2.111,0.054,2.608c0.043,0.354,0.115,0.582,0.496,0.639c0.171,0.029,0.438,0.052,0.551,0.052
		c0.074,0,0.102,0.059,0.102,0.102c0,0.055-0.057,0.099-0.198,0.099c-0.68,0-1.501-0.044-1.557-0.044
		c-0.046,0-0.85,0.044-1.237,0.044c-0.125,0-0.197-0.029-0.197-0.099c0-0.043,0.029-0.102,0.101-0.102
		c0.114,0,0.266-0.024,0.378-0.052c0.243-0.057,0.275-0.285,0.326-0.639c0.076-0.498,0.076-1.446,0.076-2.608L365.533,293.542
		L365.533,293.542z"/>
	<path id="path3133" inkscape:connector-curvature="0" fill="#08080D" d="M405.512,262.806c0,3.043,0,5.529,0.148,6.827
		c0.112,0.928,0.22,1.521,1.185,1.669c0.483,0.074,1.188,0.148,1.485,0.148c0.183,0,0.263,0.15,0.263,0.259
		c0,0.148-0.156,0.261-0.525,0.261c-1.816,0-3.927-0.112-4.076-0.112c-0.19,0-2.228,0.112-3.231,0.112
		c-0.33,0-0.517-0.075-0.517-0.261c0-0.11,0.072-0.259,0.263-0.259c0.294,0,0.701-0.075,0.995-0.148
		c0.633-0.148,0.747-0.741,0.858-1.669c0.146-1.297,0.186-3.783,0.186-6.827v-5.562c0-4.898,0-5.787-0.074-6.788
		c-0.075-1.077-0.337-1.559-1.043-1.704c-0.371-0.075-0.772-0.114-0.997-0.114c-0.148,0-0.263-0.148-0.263-0.26
		c0-0.188,0.147-0.262,0.521-0.262c1.076,0,3.112,0.075,3.303,0.075c0.148,0,2.259-0.075,3.263-0.075
		c0.371,0,0.519,0.075,0.519,0.262c0,0.111-0.148,0.26-0.258,0.26c-0.228,0-0.45,0-0.819,0.075
		c-0.888,0.184-1.077,0.632-1.149,1.743c-0.036,1.001-0.036,1.89-0.036,6.788L405.512,262.806L405.512,262.806z"/>
	<path id="path3137" inkscape:connector-curvature="0" fill="#08080D" d="M415.784,269.001c-3.189-2.746-3.969-6.342-3.969-9.348
		c0-2.113,0.78-5.788,3.675-8.605c1.962-1.893,4.929-3.376,9.938-3.376c1.301,0,3.153,0.114,4.75,0.374
		c1.218,0.222,2.258,0.444,3.335,0.483c0.333,0,0.405,0.148,0.405,0.331c0,0.261-0.072,0.635-0.148,1.779
		c-0.035,1.041-0.035,2.783-0.072,3.227c-0.036,0.486-0.185,0.671-0.369,0.671c-0.225,0-0.261-0.223-0.261-0.671
		c0-1.219-0.517-2.481-1.37-3.152c-1.151-0.962-3.526-1.742-6.418-1.742c-4.193,0-6.197,1.113-7.34,2.189
		c-2.414,2.226-2.935,5.044-2.935,8.233c0,6.043,4.784,11.424,11.76,11.424c2.444,0,4.08-0.185,5.379-1.483
		c0.698-0.707,1.149-2.04,1.257-2.635c0.072-0.333,0.112-0.444,0.335-0.444c0.148,0,0.297,0.224,0.297,0.444
		c0,0.222-0.445,2.97-0.78,4.044c-0.185,0.592-0.257,0.707-0.816,0.93c-1.329,0.519-3.779,0.702-5.9,0.702
		C421.644,272.375,418.343,271.226,415.784,269.001"/>
	
		<image overflow="visible" enable-background="new    " width="232" height="160" id="image4583" xlink:href="CE01B36B8DD65B9B.png"  transform="matrix(1 0 0 1 304 258.3622)">
	</image>
</g>
</svg>
