<?xml version="1.0" encoding="UTF-8" standalone="no"?>
<!-- Created with Inkscape (http://www.inkscape.org/) -->

<svg
   xmlns:dc="http://purl.org/dc/elements/1.1/"
   xmlns:cc="http://creativecommons.org/ns#"
   xmlns:rdf="http://www.w3.org/1999/02/22-rdf-syntax-ns#"
   xmlns:svg="http://www.w3.org/2000/svg"
   xmlns="http://www.w3.org/2000/svg"
   xmlns:sodipodi="http://sodipodi.sourceforge.net/DTD/sodipodi-0.dtd"
   xmlns:inkscape="http://www.inkscape.org/namespaces/inkscape"
   width="8.5in"
   height="11in"
   viewBox="0 0 215.9 279.4"
   version="1.1"
   id="svg3788"
   inkscape:version="0.92.1 r15371"
   sodipodi:docname="fm_white2.svg">
  <defs
     id="defs3782" />
  <sodipodi:namedview
     id="base"
     pagecolor="#ffffff"
     bordercolor="#666666"
     borderopacity="1.0"
     inkscape:pageopacity="0.0"
     inkscape:pageshadow="2"
     inkscape:zoom="0.35"
     inkscape:cx="400"
     inkscape:cy="560"
     inkscape:document-units="mm"
     inkscape:current-layer="layer1"
     showgrid="false"
     units="in"
     inkscape:window-width="1366"
     inkscape:window-height="705"
     inkscape:window-x="-8"
     inkscape:window-y="-8"
     inkscape:window-maximized="1" />
  <metadata
     id="metadata3785">
    <rdf:RDF>
      <cc:Work
         rdf:about="">
        <dc:format>image/svg+xml</dc:format>
        <dc:type
           rdf:resource="http://purl.org/dc/dcmitype/StillImage" />
        <dc:title></dc:title>
      </cc:Work>
    </rdf:RDF>
  </metadata>
  <g
     inkscape:label="Capa 1"
     inkscape:groupmode="layer"
     id="layer1"
     transform="translate(0,-17.6)">
    <path
       inkscape:connector-curvature="0"
       d="m 41.231806,141.81227 2.555188,0.90199 1.964246,-1.04724 -0.136888,-0.39673 -4.523327,0.14196 z m 21.488191,26.68481 c 0,-3.70648 0.0729,-5.61451 0.0729,-8.47966 0,-4.43095 -2.515684,-6.11141 -5.845445,-6.11141 -3.031506,0 -5.251158,1.41282 -6.509277,3.51338 h -0.0729 c -0.92648,-2.55853 -3.072681,-3.51338 -5.47652,-3.51338 -2.256379,0 -4.846067,1.25978 -6.2522,3.05543 l -0.03561,-0.0379 c -0.0373,-0.99382 -0.366141,-2.17792 -1.480141,-2.17792 h -3.595739 l 1.096195,-2.35821 3.853929,-9.04778 -0.0957,0.30215 c 1.320998,-2.6431 2.994783,-3.7877 4.579531,-4.05369 l -0.16526,-0.0162 c 2.593588,-0.31273 3.478889,0.5737 3.478889,0.5737 l 0.988798,1.10286 c 1.151836,0.0179 5.228346,0.28601 5.828746,2.00821 0.599851,1.72107 -1.288721,2.01878 -1.288721,2.01878 0,0 0.489112,-1.01774 -0.361133,-1.38331 -0.850804,-0.36504 -4.868884,0.78234 -4.868884,0.78234 0,0 0.728945,0.66162 2.557417,0.0233 1.02775,-0.35724 1.712736,0.24873 1.712736,0.24873 l -0.303263,1.37107 c 0,0 4.314109,-0.59873 3.394861,-3.23403 -1.031098,-2.96029 -6.129238,-2.87128 -6.129238,-2.87128 L 46.656024,138.987 c 0,0 -2.815047,-1.24755 -6.304504,-0.0528 -3.117756,1.36051 -5.970642,6.6673 -8.187514,11.42992 l -0.543647,1.15628 -1.499059,3.2257 H 18.425971 l -0.397302,0.92036 11.677528,-0.0278 -4.488275,9.66488 c -4.315777,9.29762 -5.309029,12.36863 -7.633852,11.69534 -1.257562,-0.36392 -2.416078,-2.16791 -3.383734,-2.44836 -1.017734,-0.29325 -2.322038,0.58872 -2.406062,0.87807 -0.12577,0.43626 1.134589,2.42721 2.975304,2.95915 1.693816,0.49079 4.098764,-0.0211 6.020722,-1.405 2.450022,-1.75836 4.21506,-3.87063 6.753001,-9.37886 l 5.570001,-11.97301 2.26862,-0.005 c 0.70279,0.61044 0.777909,1.90918 0.777909,4.39202 v 4.16331 c 0,5.34687 -0.221465,6.531 -0.481879,7.06574 -0.5915,0.34275 -1.626485,0.45683 -2.884605,0.45683 h -0.888641 v 0.82075 c 2.256381,0 5.401956,-0.094 7.028999,0.0584 -0.112401,-1.25978 -0.259304,-2.63475 -0.259304,-8.40174 V 159.522 c 0,-2.06328 2.403839,-4.12657 5.029137,-4.12657 3.25798,0 4.477148,1.94755 4.477148,5.53939 v 2.63475 c 0,5.95842 -0.220352,7.14252 -0.479656,7.67727 -0.5915,0.34276 -1.627039,0.45682 -2.886827,0.45682 v 0.68888 c 1.48014,0 3.034285,-0.0205 4.698607,-0.0205 1.665997,0 3.292478,0.0205 4.551711,0.0205 v -0.68888 c -1.259233,0 -2.294775,-0.11408 -2.885714,-0.45682 -0.259861,-0.53475 -0.481327,-1.71885 -0.481327,-7.82917 V 159.522 c 0,-2.06328 2.403279,-4.12657 5.030251,-4.12657 3.255756,0 4.475479,1.94755 4.475479,5.53939 0,4.12381 -0.147453,5.95785 -0.147453,8.63099 0,2.67371 1.844054,2.82673 9.068363,2.82673 l 0.527512,-0.68888 c -5.990117,0 -6.93162,-0.76231 -6.93162,-3.20622"
       style="fill:#000000;fill-opacity:1;fill-rule:evenodd;stroke:none;stroke-width:0.3709625"
       id="path3141" />
    <g
       id="g110"
       transform="matrix(0.47542951,0,0,0.47542951,-8.8877208,20.87593)"
       style="fill:#000000">
      <path
         id="path3089"
         style="fill:#000000;fill-opacity:1;fill-rule:nonzero;stroke:none;stroke-width:1.06666672"
         d="m 176.28736,271.664 c 0,-6.1728 0,-7.2816 -0.08,-8.5472 -0.0768,-1.3424 -0.3952,-1.9776 -1.6992,-2.2544 -0.3184,-0.0785 -0.9904,-0.1184 -1.3472,-0.1184 -0.1584,0 -0.3136,-0.08 -0.3136,-0.2368 0,-0.2368 0.1952,-0.3168 0.6304,-0.3168 0.912,0 1.9792,0 2.8496,0.0369 l 1.6224,0.0832 c 0.7904,0.0384 8.8224,0 9.7328,-0.0399 0.752,-0.0431 1.384,-0.0431 1.7392,-0.1584 0.2368,-0.0815 0.3952,-0.24 0.5552,-0.24 0.1568,0 0.2352,0.1584 0.2352,0.3552 0,0.28 -0.1952,0.7536 -0.3168,1.864 -0.0369,0.3936 -0.1184,2.1344 -0.1984,2.608 -0.0384,0.2 -0.11686,0.4352 -0.3136,0.4352 -0.1984,0 -0.2784,-0.1968 -0.2784,-0.4768 0,-0.3152 -0.1184,-0.984 -0.3568,-1.5024 -0.2352,-0.512 -1.1456,-1.2224 -2.688,-1.264 l -6.0928,-0.11686 c -0.2368,0 -0.3568,0.11686 -0.3568,0.4336 v 10.9184 c 0,0.2368 0.0384,0.3568 0.2784,0.3568 l 5.0624,-0.0399 c 0.6736,0 1.2288,0 1.7808,-0.0399 0.9504,-0.0783 1.464,-0.1984 1.8192,-0.7088 0.1584,-0.2016 0.2768,-0.3984 0.4352,-0.3984 0.1584,0 0.1984,0.11687 0.1984,0.3184 0,0.2368 -0.1984,0.9072 -0.3168,2.2144 -0.08,0.7888 -0.1584,2.3712 -0.1584,2.6512 0,0.3552 0,0.7488 -0.2752,0.7488 -0.2,0 -0.2784,-0.1584 -0.2784,-0.3552 -0.0399,-0.3936 -0.0783,-0.9504 -0.2368,-1.424 -0.1968,-0.552 -0.8304,-1.2672 -2.0592,-1.424 -0.9872,-0.1184 -5.3008,-0.1184 -5.9712,-0.1184 -0.2,0 -0.2784,0.0785 -0.2784,0.3536 v 3.3664 c 0,3.7968 0,6.9248 0.1968,8.584 0.11994,1.1504 0.3568,2.0192 1.5424,2.1776 0.5552,0.0785 1.4256,0.1568 1.7808,0.1568 0.2384,0 0.3168,0.1184 0.3168,0.2384 0,0.1984 -0.1968,0.3152 -0.6336,0.3152 -2.1744,0 -4.6688,-0.11686 -4.864,-0.11686 -0.1984,0 -2.6912,0.11686 -3.8768,0.11686 -0.4352,0 -0.6336,-0.0785 -0.6336,-0.3152 0,-0.11993 0.0785,-0.2384 0.3168,-0.2384 0.3536,0 0.8304,-0.0785 1.1856,-0.1568 0.7904,-0.1584 0.9904,-1.0272 1.1488,-2.1776 0.1968,-1.6592 0.1968,-4.7872 0.1968,-8.584 v -6.9632 z"
         inkscape:connector-curvature="0" />
      <path
         id="path3097"
         style="fill:#000000;fill-opacity:1;fill-rule:nonzero;stroke:none;stroke-width:1.06666672"
         d="m 211.81248,277.24186 c 0,0.1968 0.08,0.3168 0.2352,0.4336 0.5152,0.2784 2.296,0.5152 3.84,0.5152 0.8288,0 1.7808,-0.0416 2.6096,-0.5936 1.1872,-0.7904 2.0976,-2.5712 2.0976,-5.144 0,-4.192 -2.2944,-6.6064 -6.0128,-6.6064 -1.0304,0 -2.1376,0.1184 -2.4944,0.1952 -0.1568,0.0832 -0.2752,0.2 -0.2752,0.3984 z m -3.0064,-2.848 c 0,-5.224 0,-6.1728 -0.08,-7.2416 -0.0783,-1.1472 -0.2768,-1.7008 -1.424,-1.8592 -0.2768,-0.0369 -0.872,-0.0785 -1.1888,-0.0785 -0.11686,0 -0.2752,-0.1584 -0.2752,-0.2784 0,-0.2 0.1584,-0.2784 0.5536,-0.2784 1.5824,0 3.9168,0.0785 4.1152,0.0785 0.3568,0 3.2832,-0.0785 4.352,-0.0785 2.216,0 4.6688,0.2016 6.488,1.4672 0.8704,0.632 2.4128,2.2544 2.4128,4.5856 0,2.4944 -1.0272,4.9072 -4.272,7.6768 2.8464,3.5632 5.2592,6.6048 7.2784,8.7072 1.8592,1.8976 3.0064,2.2128 3.8784,2.3312 0.672,0.1184 1.0272,0.1184 1.2256,0.1184 0.1984,0 0.3168,0.1616 0.3168,0.28 0,0.1952 -0.1968,0.2752 -0.832,0.2752 h -2.1744 c -1.9792,0 -2.8496,-0.1968 -3.72,-0.6736 -1.504,-0.7888 -2.768,-2.4112 -4.7472,-4.9456 -1.464,-1.8192 -3.0064,-3.9936 -3.7584,-4.9056 -0.1584,-0.1584 -0.2384,-0.1968 -0.4736,-0.1968 l -4.4336,-0.0785 c -0.1552,0 -0.2352,0.0785 -0.2352,0.2752 v 0.7936 c 0,3.2432 0,5.8544 0.1568,7.24 0.1184,0.9904 0.3168,1.6192 1.3856,1.7776 0.4736,0.08 1.2272,0.1584 1.544,0.1584 0.2352,0 0.2752,0.1616 0.2752,0.28 0,0.1584 -0.1568,0.2752 -0.5552,0.2752 -1.8976,0 -4.112,-0.11686 -4.2704,-0.11686 -0.0399,0 -2.3744,0.11686 -3.4432,0.11686 -0.3552,0 -0.552,-0.08 -0.552,-0.2752 0,-0.1184 0.0768,-0.28 0.2752,-0.28 0.3168,0 0.7536,-0.0785 1.0704,-0.1584 0.6704,-0.1584 0.7504,-0.7872 0.9088,-1.7776 0.1984,-1.3856 0.1984,-4.0368 0.1984,-7.2816 v -5.9328 z"
         inkscape:connector-curvature="0" />
      <path
         id="path3093"
         style="fill:#000000;fill-opacity:1;fill-rule:nonzero;stroke:none;stroke-width:1.06666672"
         d="m 200.4176,280.32595 c 0,3.2464 0,5.8976 0.1584,7.2816 0.1184,0.9904 0.2384,1.6224 1.2656,1.7808 0.5152,0.0785 1.2672,0.1584 1.5824,0.1584 0.2,0 0.2784,0.16 0.2784,0.2768 0,0.1584 -0.1568,0.2784 -0.5536,0.2784 -1.9392,0 -4.1936,-0.11993 -4.3536,-0.11993 -0.1968,0 -2.3728,0.11993 -3.44,0.11993 -0.3552,0 -0.5552,-0.08 -0.5552,-0.2784 0,-0.11686 0.0815,-0.2768 0.2768,-0.2768 0.3168,0 0.7536,-0.08 1.0688,-0.1584 0.672,-0.1584 0.792,-0.7904 0.9104,-1.7808 0.1584,-1.384 0.1968,-4.0352 0.1968,-7.2816 v -5.9328 c 0,-5.224 0,-6.1728 -0.08,-7.24 -0.0768,-1.1488 -0.3552,-1.6624 -1.1056,-1.8176 -0.3984,-0.08 -0.832,-0.1216 -1.0672,-0.1216 -0.16,0 -0.28,-0.1584 -0.28,-0.2768 0,-0.2 0.1616,-0.28 0.5552,-0.28 1.1472,0 3.3232,0.08 3.52,0.08 0.16,0 2.4144,-0.08 3.4816,-0.08 0.3968,0 0.5552,0.08 0.5552,0.28 0,0.1184 -0.1584,0.2768 -0.2768,0.2768 -0.2384,0 -0.4736,0 -0.872,0.08 -0.9488,0.1968 -1.1472,0.6736 -1.224,1.8592 -0.0416,1.0672 -0.0416,2.016 -0.0416,7.24 z"
         inkscape:connector-curvature="0" />
      <path
         id="path3101"
         style="fill:#000000;fill-opacity:1;fill-rule:nonzero;stroke:none;stroke-width:1.06666672"
         d="m 233.4112,289.62291 c -0.4752,-0.2352 -0.5152,-0.3552 -0.5152,-1.2624 0,-1.6608 0.1584,-3.008 0.2,-3.5648 0,-0.3552 0.0768,-0.552 0.2752,-0.552 0.1968,0 0.3152,0.1184 0.3152,0.3936 0,0.2768 0,0.7552 0.1184,1.2304 0.5552,2.4512 3.1664,3.3232 5.4992,3.3232 3.4432,0 5.224,-1.9392 5.224,-4.4752 0,-2.4096 -1.3056,-3.5568 -4.392,-5.8512 l -1.5808,-1.1888 c -3.76,-2.808 -4.9872,-4.864 -4.9872,-7.2 0,-3.9552 3.1248,-6.3296 7.7152,-6.3296 1.384,0 2.7712,0.1968 3.6016,0.3936 0.6704,0.1584 0.9488,0.1584 1.224,0.1584 0.2784,0 0.3584,0.0399 0.3584,0.2368 0,0.1616 -0.16,1.2672 -0.16,3.5648 0,0.5104 -0.0384,0.7488 -0.2768,0.7488 -0.2368,0 -0.2768,-0.1584 -0.3168,-0.4336 -0.0384,-0.3952 -0.3168,-1.3088 -0.512,-1.6624 -0.2384,-0.3952 -1.3872,-1.6624 -4.512,-1.6624 -2.5296,0 -4.6288,1.2672 -4.6288,3.6416 0,2.136 1.0688,3.3616 4.5104,5.696 l 0.9888,0.672 c 4.2336,2.888 5.6976,5.224 5.6976,8.112 0,1.9776 -0.7504,4.1136 -3.2432,5.736 -1.464,0.9488 -3.64,1.1856 -5.5376,1.1856 -1.624,0 -3.6416,-0.2368 -5.0656,-0.9104"
         inkscape:connector-curvature="0" />
      <path
         id="path3105"
         style="fill:#000000;fill-opacity:1;fill-rule:nonzero;stroke:none;stroke-width:1.06666672"
         d="m 264.58208,280.32595 c 0,3.2464 0,5.8976 0.1584,7.2816 0.1184,0.9904 0.2768,1.6224 1.3456,1.7808 0.4752,0.0785 1.2656,0.1584 1.5824,0.1584 0.2368,0 0.2768,0.16 0.2768,0.2768 0,0.1584 -0.1568,0.2784 -0.5536,0.2784 -1.9008,0 -4.1136,-0.11993 -4.3104,-0.11993 -0.1616,0 -2.5744,0.11993 -3.6016,0.11993 -0.3968,0 -0.5552,-0.08 -0.5552,-0.2784 0,-0.11686 0.08,-0.24 0.2784,-0.24 0.3168,0 0.7104,-0.0753 1.0272,-0.1584 0.7136,-0.1552 0.9104,-0.8272 1.0304,-1.8176 0.1568,-1.384 0.1568,-4.0352 0.1568,-7.2816 v -14.1232 l -5.024,0.0785 c -2.1776,0.0416 -3.0064,0.28 -3.5216,1.0688 -0.3952,0.5952 -0.4336,0.832 -0.5536,1.0688 -0.0785,0.2784 -0.1968,0.3152 -0.3552,0.3152 -0.08,0 -0.2368,-0.0785 -0.2368,-0.2752 0,-0.3552 0.712,-3.3616 0.7504,-3.6384 0.08,-0.2 0.2368,-0.6368 0.3552,-0.6368 0.2384,0 0.5936,0.2784 1.5424,0.3984 0.9888,0.11686 2.336,0.1552 2.7328,0.1552 h 13.1344 c 1.1456,0 1.9376,-0.08 2.4912,-0.1552 0.5152,-0.0815 0.8304,-0.16 0.9888,-0.16 0.1584,0 0.1584,0.1984 0.1584,0.3984 0,1.0256 -0.1184,3.44 -0.1184,3.8352 0,0.2768 -0.1584,0.4352 -0.3168,0.4352 -0.1584,0 -0.2352,-0.1184 -0.2768,-0.592 l -0.0399,-0.3552 c -0.1184,-1.0304 -0.8704,-1.7808 -4.1936,-1.8624 l -4.352,-0.0785 v 14.1232 z"
         inkscape:connector-curvature="0" />
      <path
         id="path3045"
         style="fill:#000000;fill-opacity:1;fill-rule:nonzero;stroke:none;stroke-width:1.06666672"
         d="m 228.90592,318.93056 c -0.1808,-0.0864 -0.1968,-0.1328 -0.1968,-0.4832 0,-0.6336 0.0623,-1.1472 0.0783,-1.36 0,-0.1376 0.0305,-0.2096 0.1056,-0.2096 0.0736,0 0.11994,0.0431 0.11994,0.1488 0,0.1056 0,0.2896 0.0448,0.4704 0.2096,0.936 1.2096,1.2688 2.1024,1.2688 1.3152,0 1.9952,-0.7392 1.9952,-1.7088 0,-0.92 -0.4976,-1.3616 -1.6784,-2.2384 l -0.6064,-0.4528 c -1.4352,-1.072 -1.904,-1.8576 -1.904,-2.7504 0,-1.5152 1.1952,-2.4192 2.9504,-2.4192 0.528,0 1.056,0.0768 1.3744,0.1536 0.256,0.0559 0.3648,0.0559 0.4688,0.0559 0.1056,0 0.1376,0.016 0.1376,0.0911 0,0.0608 -0.0623,0.4832 -0.0623,1.3616 0,0.1968 -0.016,0.288 -0.1056,0.288 -0.0896,0 -0.1056,-0.0593 -0.11994,-0.1664 -0.016,-0.1536 -0.1216,-0.4992 -0.1968,-0.6368 -0.0911,-0.1504 -0.5312,-0.6336 -1.7248,-0.6336 -0.968,0 -1.7696,0.4832 -1.7696,1.392 0,0.816 0.4096,1.2832 1.7248,2.1776 l 0.3776,0.256 c 1.6192,1.1056 2.1776,1.9936 2.1776,3.0992 0,0.7568 -0.2864,1.5728 -1.24,2.192 -0.56,0.3648 -1.3888,0.4544 -2.1152,0.4544 -0.6208,0 -1.392,-0.0896 -1.9376,-0.3504"
         inkscape:connector-curvature="0" />
      <path
         id="path3057"
         style="fill:#000000;fill-opacity:1;fill-rule:nonzero;stroke:none;stroke-width:1.06666672"
         d="m 275.62816,317.43616 c 0.7712,-1.7248 2.5104,-6.1056 2.7952,-7.032 0.0623,-0.1968 0.1216,-0.376 0.1216,-0.4816 0,-0.10726 -0.0431,-0.2288 -0.1792,-0.2736 -0.1536,-0.0448 -0.304,-0.0448 -0.4544,-0.0448 -0.0768,0 -0.152,-0.048 -0.152,-0.10726 0,-0.0768 0.0913,-0.1056 0.3024,-0.1056 0.528,0 1.136,0.0288 1.2992,0.0288 0.0785,0 0.6512,-0.0288 1.0432,-0.0288 0.1376,0 0.2128,0.0288 0.2128,0.0896 0,0.0608 -0.0448,0.12313 -0.152,0.12313 -0.0896,0 -0.392,0 -0.6336,0.1504 -0.184,0.1216 -0.392,0.304 -0.7424,1.1792 -0.1504,0.3648 -0.8016,1.904 -1.4816,3.4768 -0.816,1.8752 -1.4064,3.2656 -1.7072,3.9008 -0.3632,0.7712 -0.44,0.9696 -0.576,0.9696 -0.1504,0 -0.2416,-0.168 -0.4976,-0.7872 l -3.2656,-7.8752 c -0.3024,-0.7264 -0.4848,-0.864 -0.9248,-0.9696 -0.2112,-0.0448 -0.4352,-0.0448 -0.512,-0.0448 -0.0753,0 -0.1056,-0.0753 -0.1056,-0.12313 0,-0.0753 0.136,-0.0896 0.3472,-0.0896 0.6352,0 1.392,0.0288 1.5568,0.0288 0.136,0 0.7264,-0.0288 1.24,-0.0288 0.2432,0 0.3648,0.0288 0.3648,0.0896 0,0.0608 -0.048,0.12313 -0.136,0.12313 -0.1536,0 -0.3632,0.0128 -0.4848,0.0608 -0.1376,0.0593 -0.152,0.1344 -0.152,0.2272 0,0.1664 0.1664,0.5584 0.3632,1.072 l 2.5104,6.472 z"
         inkscape:connector-curvature="0" />
      <path
         id="path3109"
         style="fill:#000000;fill-opacity:1;fill-rule:nonzero;stroke:none;stroke-width:1.06666672"
         d="m 318.54432,284.99347 c 0.1584,1.4304 0.4336,3.6448 2.1328,4.1968 1.1488,0.3552 2.1776,0.3552 2.576,0.3552 0.1952,0 0.312,0.0399 0.312,0.2 0,0.2368 -0.352,0.3552 -0.8304,0.3552 -0.8672,0 -5.1408,-0.1184 -6.6064,-0.2368 -0.9072,-0.0785 -1.1104,-0.2 -1.1104,-0.3984 0,-0.1584 0.08,-0.2368 0.2816,-0.2752 0.1952,-0.0416 0.2384,-0.7104 0.1584,-1.4256 l -1.9008,-20.416 h -0.11686 l -9.6944,20.5744 c -0.832,1.7408 -0.9488,2.0976 -1.3072,2.0976 -0.2752,0 -0.4736,-0.3984 -1.2272,-1.8192 -1.0256,-1.9408 -4.4288,-8.784 -4.6288,-9.1792 -0.352,-0.7136 -4.784,-10.208 -5.2208,-11.2784 h -0.1568 l -1.5824,18.36 c -0.0399,0.6352 -0.0399,1.3456 -0.0399,2.016 0,0.5968 0.4352,1.1088 1.0304,1.2272 0.6704,0.1632 1.264,0.1984 1.5008,0.1984 0.16,0 0.3168,0.0768 0.3168,0.2 0,0.2752 -0.2352,0.3552 -0.7104,0.3552 -1.4656,0 -3.3632,-0.1184 -3.68,-0.1184 -0.3552,0 -2.2576,0.1184 -3.3248,0.1184 -0.3952,0 -0.672,-0.08 -0.672,-0.3552 0,-0.12313 0.1968,-0.2 0.3952,-0.2 0.3168,0 0.5936,0 1.1888,-0.1184 1.304,-0.2368 1.424,-1.7808 1.5824,-3.2848 l 2.848,-25.792 c 0.0399,-0.4384 0.1968,-0.7152 0.4336,-0.7152 0.2384,0 0.3968,0.1584 0.5952,0.592 l 12.1056,24.8864 11.6336,-24.8432 c 0.1584,-0.3584 0.3152,-0.6352 0.5888,-0.6352 0.28,0 0.3984,0.3168 0.4752,1.0688 l 2.6544,24.2896 z"
         inkscape:connector-curvature="0" />
      <path
         id="path3049"
         style="fill:#000000;fill-opacity:1;fill-rule:nonzero;stroke:none;stroke-width:1.06666672"
         d="m 246.19475,315.38035 c 0,1.24 0,2.2496 0.0608,2.7824 0.0448,0.3776 0.0896,0.6208 0.4832,0.6816 0.1968,0.0288 0.4848,0.0559 0.6032,0.0559 0.0768,0 0.10714,0.0608 0.10714,0.10726 0,0.0608 -0.0608,0.1056 -0.2112,0.1056 -0.7408,0 -1.6032,-0.0448 -1.664,-0.0448 -0.0751,0 -0.9072,0.0448 -1.3152,0.0448 -0.136,0 -0.2112,-0.0305 -0.2112,-0.1056 0,-0.0463 0.0288,-0.10726 0.1041,-0.10726 0.1216,0 0.2896,-0.0271 0.4096,-0.0559 0.2592,-0.0608 0.3024,-0.304 0.3472,-0.6816 0.0608,-0.5328 0.0751,-1.5424 0.0751,-2.7824 v -2.2688 c 0,-1.9968 0,-2.36 -0.0305,-2.768 -0.0305,-0.4352 -0.1328,-0.6336 -0.4224,-0.6944 -0.1504,-0.032 -0.3184,-0.0463 -0.408,-0.0463 -0.0591,0 -0.10726,-0.0608 -0.10726,-0.1056 0,-0.0753 0.0608,-0.1056 0.2144,-0.1056 0.4368,0 1.2688,0.0303 1.344,0.0303 0.0608,0 0.9232,-0.0303 1.3296,-0.0303 0.1536,0 0.2144,0.0303 0.2144,0.1056 0,0.0448 -0.0608,0.1056 -0.1088,0.1056 -0.0879,0 -0.1808,0 -0.3312,0.0305 -0.3648,0.0768 -0.4384,0.2592 -0.4688,0.7104 -0.0143,0.408 -0.0143,0.7712 -0.0143,2.768 v 2.2688 z"
         inkscape:connector-curvature="0" />
      <path
         id="path3053"
         style="fill:#000000;fill-opacity:1;fill-rule:nonzero;stroke:none;stroke-width:1.06666672"
         d="m 259.11046,315.40979 c 0,1.8896 0.0305,2.6624 0.272,2.8864 0.2128,0.2128 0.7264,0.304 1.7696,0.304 0.696,0 1.2864,-0.016 1.6032,-0.3936 0.1664,-0.1952 0.272,-0.4704 0.3168,-0.7232 0.0145,-0.0928 0.0608,-0.168 0.136,-0.168 0.0608,0 0.0896,0.0608 0.0896,0.1952 0,0.136 -0.0896,0.9072 -0.1952,1.2864 -0.0911,0.3008 -0.136,0.3456 -0.848,0.3456 -0.952,0 -1.6912,-0.0128 -2.312,-0.0448 -0.6032,-0.016 -1.0576,-0.0305 -1.4528,-0.0305 -0.0608,0 -0.2864,0 -0.5424,0.0143 -0.2736,0.016 -0.5616,0.0305 -0.7728,0.0305 -0.136,0 -0.2128,-0.0305 -0.2128,-0.1056 0,-0.0448 0.0303,-0.1056 0.10714,-0.1056 0.1216,0 0.288,-0.0273 0.408,-0.0576 0.2592,-0.0608 0.288,-0.304 0.3488,-0.6816 0.0753,-0.5296 0.0753,-1.5408 0.0753,-2.7824 v -2.2688 c 0,-1.9936 0,-2.36 -0.0305,-2.768 -0.0288,-0.4352 -0.1056,-0.6464 -0.5424,-0.7104 -0.10726,-0.0143 -0.336,-0.0288 -0.4544,-0.0288 -0.0463,0 -0.1056,-0.0608 -0.1056,-0.10714 0,-0.0753 0.0591,-0.10411 0.2112,-0.10411 0.6048,0 1.4352,0.0288 1.5104,0.0288 0.0623,0 1.0592,-0.0288 1.4672,-0.0288 0.136,0 0.2112,0.0288 0.2112,0.10411 0,0.0463 -0.0593,0.0928 -0.1056,0.0928 -0.0896,0 -0.2864,0.0143 -0.4384,0.0288 -0.3936,0.0785 -0.4688,0.2736 -0.4992,0.7248 -0.0145,0.408 -0.0145,0.7744 -0.0145,2.768 v 2.2992 z"
         inkscape:connector-curvature="0" />
      <path
         id="path3113"
         style="fill:#000000;fill-opacity:1;fill-rule:nonzero;stroke:none;stroke-width:1.06666672"
         d="m 338.63808,279.33779 c 0.1552,0 0.1552,-0.0785 0.1152,-0.2384 l -3.4432,-9.2176 c -0.1936,-0.5152 -0.3936,-0.5152 -0.592,0 l -3.2432,9.2176 c -0.0431,0.16 0,0.2384 0.1152,0.2384 z m -3.88,-14.0048 c 0.4352,-1.1088 0.5936,-1.3056 0.8304,-1.3056 0.3552,0 0.4752,0.4736 0.8304,1.2272 0.6304,1.424 6.2096,15.3088 8.3456,20.4144 1.2688,3.0064 2.2192,3.4416 2.9696,3.6784 0.5136,0.1616 1.0288,0.1984 1.3872,0.1984 0.1936,0 0.4336,0.0768 0.4336,0.2784 0,0.1968 -0.3984,0.2752 -0.792,0.2752 -0.5152,0 -3.0848,0 -5.5008,-0.0785 -0.6704,-0.0384 -1.2224,-0.0384 -1.2224,-0.2368 0,-0.1616 0.08,-0.1616 0.2352,-0.2384 0.1952,-0.08 0.5536,-0.3552 0.3168,-0.9072 l -3.128,-7.7184 c -0.0783,-0.1584 -0.1152,-0.1984 -0.3168,-0.1984 h -8.0272 c -0.16,0 -0.2784,0.08 -0.3584,0.2784 l -1.976,5.3808 c -0.3168,0.8304 -0.5184,1.6608 -0.5184,2.2576 0,0.6688 0.5952,0.9072 1.1904,0.9072 h 0.3168 c 0.2752,0 0.352,0.1184 0.352,0.2784 0,0.1968 -0.1936,0.2752 -0.5104,0.2752 -0.8304,0 -2.7328,-0.11687 -3.128,-0.11687 -0.3552,0 -2.0976,0.11687 -3.52,0.11687 -0.4336,0 -0.6688,-0.0785 -0.6688,-0.2752 0,-0.16 0.1584,-0.2784 0.312,-0.2784 0.24,0 0.7552,-0.0369 1.0288,-0.08 1.584,-0.1968 2.2576,-1.384 2.9296,-3.0848 l 8.1888,-21.048 z"
         inkscape:connector-curvature="0" />
      <path
         id="path3121"
         style="fill:#000000;fill-opacity:1;fill-rule:nonzero;stroke:none;stroke-width:1.06666672"
         d="m 366.1232,274.39328 c 0,-5.2256 0,-6.1728 -0.0768,-7.2416 -0.0783,-1.1472 -0.2784,-1.6992 -1.4224,-1.8592 -0.28,-0.0384 -0.8704,-0.0785 -1.1904,-0.0785 -0.11366,0 -0.272,-0.1584 -0.272,-0.2784 0,-0.1984 0.1584,-0.2784 0.552,-0.2784 1.5808,0 3.84,0.08 4.0336,0.08 0.2352,0 7.5168,0.0416 8.3104,0 0.6688,-0.0399 1.3072,-0.1552 1.5824,-0.1984 0.1584,-0.0384 0.312,-0.1584 0.4752,-0.1584 0.1152,0 0.1552,0.1584 0.1552,0.3168 0,0.2384 -0.1952,0.6352 -0.2768,1.5824 -0.0416,0.3184 -0.1184,1.8224 -0.1952,2.2192 -0.0399,0.1568 -0.1584,0.352 -0.3184,0.352 -0.1968,0 -0.2736,-0.1568 -0.2736,-0.432 0,-0.2368 -0.0448,-0.7936 -0.2032,-1.1888 -0.2352,-0.552 -0.5904,-0.7904 -2.4912,-1.0288 -0.592,-0.0753 -4.6272,-0.11686 -5.0224,-0.11686 -0.1584,0 -0.2016,0.11686 -0.2016,0.3552 v 9.1376 c 0,0.24 0,0.3568 0.2016,0.3568 0.4368,0 5.0224,0 5.8144,-0.0768 0.8336,-0.08 1.3456,-0.1184 1.6992,-0.4768 0.2416,-0.2384 0.3984,-0.4352 0.52,-0.4352 0.11686,0 0.1936,0.08 0.1936,0.2768 0,0.1968 -0.1936,0.7536 -0.2752,1.8592 -0.0768,0.6736 -0.1584,1.9408 -0.1584,2.1776 0,0.2768 -0.0768,0.632 -0.3168,0.632 -0.1584,0 -0.24,-0.1184 -0.24,-0.3152 0,-0.3168 0,-0.672 -0.1552,-1.1104 -0.11994,-0.472 -0.4336,-0.8688 -1.7824,-1.0272 -0.9504,-0.11686 -4.6688,-0.1568 -5.2608,-0.1568 -0.1968,0 -0.24,0.1184 -0.24,0.2352 v 2.8096 c 0,1.1472 -0.0337,5.0656 0,5.7376 0.0815,2.2544 0.7152,2.6912 4.1568,2.6912 0.912,0 2.5712,0 3.4816,-0.3552 0.9088,-0.3984 1.384,-0.9904 1.5824,-2.336 0.0815,-0.3936 0.1584,-0.512 0.3584,-0.512 0.1952,0 0.232,0.2768 0.232,0.512 0,0.2384 -0.2736,2.5328 -0.4704,3.2432 -0.24,0.872 -0.5904,0.872 -1.9376,0.872 -2.6128,0 -4.6336,-0.08 -6.0544,-0.11686 -1.464,-0.08 -2.3728,-0.08 -2.8896,-0.08 -0.0815,0 -0.7504,0 -1.504,0.0384 -0.672,0.0416 -1.4608,0.0785 -2.0176,0.0785 -0.3536,0 -0.5536,-0.0785 -0.5536,-0.2752 0,-0.1184 0.0815,-0.2784 0.2784,-0.2784 0.3168,0 0.7536,-0.11993 1.0672,-0.1584 0.6736,-0.1184 0.7504,-0.7904 0.9088,-1.7792 0.1968,-1.3856 0.1968,-4.0368 0.1968,-7.2816 v -5.9328 z"
         inkscape:connector-curvature="0" />
      <path
         id="path3065"
         style="fill:#000000;fill-opacity:1;fill-rule:nonzero;stroke:none;stroke-width:1.06666672"
         d="m 306.74054,314.19994 c 0,0.0753 0.0303,0.11993 0.0911,0.1664 0.1952,0.10726 0.8784,0.1952 1.4672,0.1952 0.3184,0 0.68,-0.0128 0.9984,-0.2256 0.4544,-0.3008 0.8016,-0.9808 0.8016,-1.9664 0,-1.6016 -0.8816,-2.5232 -2.3008,-2.5232 -0.3904,0 -0.8144,0.0463 -0.952,0.0753 -0.0608,0.032 -0.1056,0.0753 -0.1056,0.1504 v 4.128 z m -1.1472,-1.088 c 0,-1.9968 0,-2.36 -0.032,-2.768 -0.0305,-0.4352 -0.10726,-0.648 -0.5424,-0.7104 -0.1088,-0.016 -0.3328,-0.0305 -0.4528,-0.0305 -0.0495,0 -0.11046,-0.0608 -0.11046,-0.1056 0,-0.0753 0.0608,-0.1056 0.2112,-0.1056 0.6096,0 1.4976,0.0305 1.5744,0.0305 0.1392,0 1.2544,-0.0305 1.6656,-0.0305 0.8432,0 1.7824,0.0753 2.4784,0.5616 0.3344,0.24 0.9232,0.8592 0.9232,1.752 0,0.9552 -0.3952,1.8736 -1.632,2.9344 1.0864,1.36 2.008,2.5232 2.7792,3.3248 0.712,0.7264 1.1488,0.848 1.4816,0.8944 0.256,0.0416 0.392,0.0416 0.4672,0.0416 0.0785,0 0.12314,0.0608 0.12314,0.10726 0,0.0753 -0.0751,0.1039 -0.3152,0.1039 h -0.832 c -0.76,0 -1.088,-0.0751 -1.4224,-0.2528 -0.5776,-0.304 -1.0592,-0.9248 -1.816,-1.8912 -0.5584,-0.6976 -1.1488,-1.5264 -1.4336,-1.8752 -0.0608,-0.0625 -0.0911,-0.0768 -0.184,-0.0768 l -1.6928,-0.0288 c -0.0608,0 -0.0911,0.0288 -0.0911,0.1056 v 0.3008 c 0,1.2416 0,2.2384 0.0608,2.7696 0.0448,0.3776 0.1216,0.6208 0.5296,0.6816 0.1808,0.0305 0.4672,0.0559 0.5888,0.0559 0.0896,0 0.1088,0.0608 0.1088,0.10726 0,0.0608 -0.0623,0.1039 -0.2144,0.1039 -0.7264,0 -1.5728,-0.0431 -1.6336,-0.0431 -0.016,0 -0.904,0.0431 -1.3136,0.0431 -0.1376,0 -0.2096,-0.0288 -0.2096,-0.1039 0,-0.0463 0.0288,-0.10726 0.1024,-0.10726 0.12314,0 0.2864,-0.0256 0.408,-0.0559 0.2624,-0.0608 0.2864,-0.304 0.3488,-0.6816 0.0768,-0.5312 0.0768,-1.5424 0.0768,-2.7824 v -2.2688 z"
         inkscape:connector-curvature="0" />
      <path
         id="path3061"
         style="fill:#000000;fill-opacity:1;fill-rule:nonzero;stroke:none;stroke-width:1.06666672"
         d="m 289.92166,313.11053 c 0,-1.9952 0,-2.36 -0.0305,-2.768 -0.0305,-0.4352 -0.1056,-0.648 -0.5456,-0.7104 -0.1024,-0.0143 -0.3312,-0.0288 -0.4528,-0.0288 -0.0448,0 -0.1056,-0.0625 -0.1056,-0.10727 0,-0.0753 0.0608,-0.1056 0.2112,-0.1056 0.6064,0 1.4688,0.0305 1.544,0.0305 0.0879,0 2.8704,0.0143 3.1744,0 0.2576,-0.016 0.496,-0.0608 0.6064,-0.0721 0.0591,-0.0192 0.1184,-0.0608 0.1792,-0.0608 0.0448,0 0.0591,0.0608 0.0591,0.11687 0,0.0911 -0.0751,0.2448 -0.1056,0.6048 -0.0145,0.1216 -0.0448,0.6992 -0.0736,0.848 -0.016,0.0608 -0.0591,0.136 -0.11994,0.136 -0.08,0 -0.1088,-0.0608 -0.1088,-0.168 0,-0.0864 -0.0128,-0.2992 -0.0719,-0.4512 -0.0928,-0.2128 -0.2304,-0.3024 -0.9552,-0.3952 -0.2256,-0.0273 -1.7696,-0.0431 -1.92,-0.0431 -0.0608,0 -0.0753,0.0431 -0.0753,0.136 v 3.4912 c 0,0.0928 0,0.1376 0.0753,0.1376 0.1664,0 1.92,0 2.2224,-0.0305 0.3168,-0.032 0.5152,-0.0463 0.6528,-0.1824 0.0881,-0.0896 0.1504,-0.1648 0.1936,-0.1648 0.048,0 0.0768,0.0303 0.0768,0.10713 0,0.0721 -0.0768,0.2832 -0.10726,0.7088 -0.032,0.2576 -0.0623,0.7408 -0.0623,0.8288 0,0.1088 -0.0288,0.2432 -0.11993,0.2432 -0.0591,0 -0.0881,-0.0431 -0.0881,-0.11993 0,-0.12314 0,-0.2592 -0.0608,-0.4224 -0.0463,-0.184 -0.168,-0.3344 -0.6816,-0.3952 -0.3616,-0.0448 -1.784,-0.0591 -2.0112,-0.0591 -0.0751,0 -0.0896,0.0448 -0.0896,0.0896 v 1.0752 c 0,0.4384 -0.016,1.936 0,2.1904 0.0305,0.8624 0.272,1.0304 1.5856,1.0304 0.3488,0 0.9856,0 1.3328,-0.136 0.3472,-0.1536 0.528,-0.3776 0.6048,-0.8944 0.0305,-0.1488 0.0559,-0.1936 0.136,-0.1936 0.0736,0 0.0913,0.1056 0.0913,0.1936 0,0.0911 -0.11047,0.9696 -0.1824,1.2416 -0.0913,0.3312 -0.2272,0.3312 -0.7408,0.3312 -0.9984,0 -1.7696,-0.0288 -2.312,-0.0448 -0.5616,-0.0305 -0.9072,-0.0305 -1.104,-0.0305 -0.0305,0 -0.2896,0 -0.5776,0.016 -0.256,0.0143 -0.5584,0.0303 -0.7696,0.0303 -0.136,0 -0.2128,-0.0303 -0.2128,-0.1056 0,-0.0463 0.032,-0.1088 0.10726,-0.1088 0.12314,0 0.2864,-0.0416 0.408,-0.0559 0.2576,-0.0448 0.288,-0.304 0.3488,-0.6816 0.0751,-0.5312 0.0751,-1.5424 0.0751,-2.7824 v -2.2688 z"
         inkscape:connector-curvature="0" />
      <path
         id="path3069"
         style="fill:#000000;fill-opacity:1;fill-rule:nonzero;stroke:none;stroke-width:1.06666672"
         d="m 335.44832,317.90387 c -1.2992,-1.1184 -1.6128,-2.584 -1.6128,-3.8128 0,-0.8592 0.3136,-2.3552 1.4928,-3.504 0.8016,-0.7728 2.0096,-1.376 4.0512,-1.376 0.5264,0 1.2896,0.0448 1.9376,0.1488 0.4976,0.0928 0.9216,0.1808 1.36,0.1968 0.136,0 0.1664,0.0608 0.1664,0.1376 0,0.1056 -0.0303,0.2592 -0.0623,0.7264 -0.0115,0.4224 -0.0115,1.1328 -0.0305,1.3152 -0.0115,0.1968 -0.0736,0.2736 -0.1504,0.2736 -0.0928,0 -0.10389,-0.0928 -0.10389,-0.2736 0,-0.4992 -0.2144,-1.016 -0.56,-1.2848 -0.472,-0.392 -1.44,-0.712 -2.6192,-0.712 -1.7072,0 -2.5232,0.4528 -2.992,0.8944 -0.984,0.904 -1.1936,2.0544 -1.1936,3.3568 0,2.4608 1.952,4.6544 4.7936,4.6544 0.9968,0 1.6608,-0.0753 2.192,-0.6048 0.288,-0.2864 0.4704,-0.8304 0.512,-1.0736 0.0288,-0.1344 0.048,-0.1808 0.1408,-0.1808 0.0576,0 0.11686,0.0928 0.11686,0.1808 0,0.0911 -0.1792,1.2112 -0.3168,1.648 -0.0736,0.2448 -0.1024,0.2848 -0.3312,0.376 -0.544,0.2128 -1.5408,0.288 -2.4032,0.288 -1.9984,0 -3.3408,-0.4672 -4.3872,-1.3744"
         inkscape:connector-curvature="0" />
      <path
         id="path3073"
         style="fill:#000000;fill-opacity:1;fill-rule:nonzero;stroke:none;stroke-width:1.06666672"
         d="m 357.31776,318.75155 c 1.1984,0 3.5984,-0.6336 3.5984,-4.3552 0,-3.0832 -1.8736,-4.7008 -3.9744,-4.7008 -2.2256,0 -3.8288,1.392 -3.8288,4.1872 0,2.9952 1.8032,4.8688 4.2048,4.8688 m -0.3056,-9.5408 c 2.9952,0 5.2656,1.8288 5.2656,4.8256 0,2.8704 -2.1312,5.2432 -5.336,5.2432 -3.648,0 -5.2016,-2.7376 -5.2016,-5.0496 0,-2.072 1.6032,-5.0192 5.272,-5.0192"
         inkscape:connector-curvature="0" />
      <path
         id="path3117"
         style="fill:#000000;fill-opacity:1;fill-rule:nonzero;stroke:none;stroke-width:1.06666672"
         d="m 357.9376,282.4649 c 0,5.4592 -0.1152,7.5568 -1.1456,9.9296 -0.7488,1.7024 -2.2912,3.2832 -5.1056,5.144 -0.472,0.3168 -1.0656,0.6736 -1.4192,0.8704 -0.0448,0 -0.1216,0.0399 -0.24,0.0399 -0.0768,0 -0.2352,-0.0399 -0.2352,-0.1984 0,-0.1968 0.11686,-0.3552 0.4304,-0.5536 0.44,-0.2384 0.9104,-0.6352 1.2272,-0.9104 2.2592,-2.2544 3.3232,-3.9968 3.3232,-12.6608 v -9.7312 c 0,-5.2256 0,-6.1744 -0.0785,-7.2416 -0.0768,-1.1488 -0.2752,-1.7008 -1.4224,-1.8592 -0.2784,-0.0384 -0.8688,-0.08 -1.1904,-0.08 -0.11686,0 -0.2752,-0.1584 -0.2752,-0.2768 0,-0.1984 0.1584,-0.2784 0.5536,-0.2784 1.5872,0 3.8384,0.08 4.0352,0.08 0.1616,0 2.3344,-0.08 3.4016,-0.08 0.3984,0 0.5536,0.08 0.5536,0.2784 0,0.1184 -0.1552,0.2768 -0.2752,0.2768 -0.2368,0 -0.472,0 -0.8656,0.08 -0.9552,0.1968 -1.152,0.6736 -1.232,1.8592 -0.0399,1.0672 -0.0399,2.016 -0.0399,7.2416 v 8.0704 z"
         inkscape:connector-curvature="0" />
      <path
         id="path3077"
         style="fill:#000000;fill-opacity:1;fill-rule:nonzero;stroke:none;stroke-width:1.06666672"
         d="m 373.54758,314.19994 c 0,0.0753 0.0305,0.11993 0.0928,0.1664 0.1936,0.10726 0.8736,0.1952 1.4656,0.1952 0.32,0 0.6832,-0.0128 0.9984,-0.2256 0.4496,-0.3008 0.8032,-0.9808 0.8032,-1.9664 0,-1.6016 -0.8816,-2.5232 -2.3024,-2.5232 -0.3904,0 -0.8144,0.0463 -0.9504,0.0753 -0.0608,0.032 -0.10726,0.0753 -0.10726,0.1504 v 4.128 z m -1.1456,-1.088 c 0,-1.9968 0,-2.36 -0.0337,-2.768 -0.0305,-0.4352 -0.10411,-0.648 -0.5456,-0.7104 -0.1024,-0.016 -0.3312,-0.0305 -0.448,-0.0305 -0.0495,0 -0.112,-0.0608 -0.112,-0.1056 0,-0.0753 0.0625,-0.1056 0.2128,-0.1056 0.6096,0 1.496,0.0305 1.5744,0.0305 0.1328,0 1.256,-0.0305 1.6656,-0.0305 0.8432,0 1.7824,0.0753 2.4768,0.5616 0.3344,0.24 0.9248,0.8592 0.9248,1.752 0,0.9552 -0.3952,1.8736 -1.632,2.9344 1.0864,1.36 2.0064,2.5232 2.7808,3.3248 0.7104,0.7264 1.1456,0.848 1.48,0.8944 0.2544,0.0416 0.3904,0.0416 0.4672,0.0416 0.0768,0 0.12313,0.0608 0.12313,0.10726 0,0.0753 -0.0768,0.1039 -0.3168,0.1039 h -0.832 c -0.76,0 -1.0928,-0.0751 -1.4192,-0.2528 -0.5776,-0.304 -1.0608,-0.9248 -1.816,-1.8912 -0.56,-0.6976 -1.1504,-1.5264 -1.4368,-1.8752 -0.0593,-0.0625 -0.0896,-0.0768 -0.1824,-0.0768 l -1.6928,-0.0288 c -0.0623,0 -0.0928,0.0288 -0.0928,0.1056 v 0.3008 c 0,1.2416 0,2.2384 0.0623,2.7696 0.0448,0.3776 0.12313,0.6208 0.528,0.6816 0.1824,0.0305 0.4672,0.0559 0.5888,0.0559 0.0928,0 0.10726,0.0608 0.10726,0.10726 0,0.0608 -0.0608,0.1039 -0.2112,0.1039 -0.728,0 -1.5728,-0.0431 -1.632,-0.0431 -0.0192,0 -0.9056,0.0431 -1.3152,0.0431 -0.1344,0 -0.2128,-0.0288 -0.2128,-0.1039 0,-0.0463 0.0288,-0.10726 0.1056,-0.10726 0.12314,0 0.2848,-0.0256 0.4064,-0.0559 0.2576,-0.0608 0.2896,-0.304 0.3504,-0.6816 0.0768,-0.5312 0.0768,-1.5424 0.0768,-2.7824 v -2.2688 z"
         inkscape:connector-curvature="0" />
      <path
         id="path3129"
         style="fill:#000000;fill-opacity:1;fill-rule:nonzero;stroke:none;stroke-width:1.06666672"
         d="m 413.95008,280.32595 c 0,3.2464 0,5.8976 0.1584,7.2816 0.11994,0.9904 0.2784,1.6224 1.3488,1.7808 0.4752,0.0785 1.264,0.1584 1.5808,0.1584 0.2432,0 0.2784,0.16 0.2784,0.2768 0,0.1584 -0.1584,0.2784 -0.552,0.2784 -1.9056,0 -4.1136,-0.11993 -4.3136,-0.11993 -0.1584,0 -2.5712,0.11993 -3.6032,0.11993 -0.3952,0 -0.5536,-0.08 -0.5536,-0.2784 0,-0.11686 0.0815,-0.24 0.28,-0.24 0.3168,0 0.7104,-0.0753 1.0272,-0.1584 0.712,-0.1552 0.912,-0.8272 1.0256,-1.8176 0.1584,-1.384 0.1584,-4.0352 0.1584,-7.2816 v -14.1232 l -5.0224,0.0785 c -2.176,0.0416 -3.0112,0.28 -3.5184,1.0688 -0.3968,0.5952 -0.4384,0.832 -0.5552,1.0688 -0.0815,0.2784 -0.1968,0.3152 -0.3552,0.3152 -0.08,0 -0.2384,-0.0785 -0.2384,-0.2752 0,-0.3552 0.7104,-3.3616 0.752,-3.6384 0.0768,-0.2 0.2384,-0.6368 0.352,-0.6368 0.24,0 0.5984,0.2784 1.5456,0.3984 0.9904,0.11686 2.3312,0.1552 2.7296,0.1552 h 13.1376 c 1.1424,0 1.9376,-0.08 2.4912,-0.1552 0.5168,-0.0815 0.8336,-0.16 0.992,-0.16 0.1536,0 0.1536,0.1984 0.1536,0.3984 0,1.0256 -0.1216,3.44 -0.1216,3.8352 0,0.2768 -0.1552,0.4352 -0.3136,0.4352 -0.1584,0 -0.24,-0.1184 -0.2752,-0.592 l -0.0416,-0.3552 c -0.11366,-1.0304 -0.8688,-1.7808 -4.192,-1.8624 l -4.3552,-0.0785 z"
         inkscape:connector-curvature="0" />
      <path
         id="path3125"
         style="fill:#000000;fill-opacity:1;fill-rule:nonzero;stroke:none;stroke-width:1.06666672"
         d="m 383.808,289.62291 c -0.4752,-0.2352 -0.512,-0.3552 -0.512,-1.2624 0,-1.6608 0.1568,-3.008 0.1952,-3.5648 0,-0.3552 0.0815,-0.552 0.2768,-0.552 0.1984,0 0.3184,0.1184 0.3184,0.3936 0,0.2768 0,0.7552 0.1152,1.2304 0.5536,2.4512 3.1664,3.3232 5.4976,3.3232 3.4448,0 5.2256,-1.9392 5.2256,-4.4752 0,-2.4096 -1.3056,-3.5568 -4.3936,-5.8512 l -1.5792,-1.1888 c -3.76,-2.808 -4.9856,-4.864 -4.9856,-7.2 0,-3.9552 3.1232,-6.3296 7.7152,-6.3296 1.384,0 2.7712,0.1968 3.6,0.3936 0.6704,0.1584 0.9504,0.1584 1.2288,0.1584 0.2736,0 0.352,0.0399 0.352,0.2368 0,0.1616 -0.1584,1.2672 -0.1584,3.5648 0,0.5104 -0.0384,0.7488 -0.2784,0.7488 -0.2352,0 -0.2752,-0.1584 -0.312,-0.4336 -0.0399,-0.3952 -0.3184,-1.3088 -0.5152,-1.6624 -0.2368,-0.3952 -1.3856,-1.6624 -4.5104,-1.6624 -2.5296,0 -4.6272,1.2672 -4.6272,3.6416 0,2.136 1.0656,3.3616 4.5104,5.696 l 0.9904,0.672 c 4.2288,2.888 5.6928,5.224 5.6928,8.112 0,1.9776 -0.7488,4.1136 -3.2464,5.736 -1.4624,0.9488 -3.6416,1.1856 -5.5328,1.1856 -1.6224,0 -3.6416,-0.2368 -5.0672,-0.9104"
         inkscape:connector-curvature="0" />
      <path
         id="path3081"
         style="fill:#000000;fill-opacity:1;fill-rule:nonzero;stroke:none;stroke-width:1.06666672"
         d="m 389.90221,313.11142 c 0,-1.9952 0,-2.36 -0.0337,-2.768 -0.0288,-0.4352 -0.1024,-0.648 -0.5456,-0.7104 -0.1024,-0.0143 -0.3296,-0.0288 -0.4496,-0.0288 -0.0463,0 -0.11046,-0.0625 -0.11046,-0.10726 0,-0.0753 0.064,-0.1056 0.2144,-0.1056 0.608,0 1.4368,0.0305 1.544,0.0305 0.2848,0 1.2864,-0.0305 1.8896,-0.0305 1.7056,0 2.3152,0.5312 2.5392,0.7264 0.3024,0.2736 0.6656,0.8464 0.6656,1.5408 0,1.8448 -1.3888,3.072 -3.4288,3.072 -0.0817,0 -0.3056,0 -0.3792,-0.0177 -0.0625,0 -0.1392,-0.0591 -0.1392,-0.1184 0,-0.1088 0.0768,-0.136 0.344,-0.136 1.4416,0 2.4704,-0.9104 2.4704,-2.0736 0,-0.4208 -0.0463,-1.2544 -0.7568,-1.9488 -0.696,-0.696 -1.4992,-0.6208 -1.7984,-0.6208 -0.2272,0 -0.6032,0.0608 -0.7424,0.0928 -0.0736,0.0145 -0.1039,0.1024 -0.1039,0.24 v 5.232 c 0,1.24 0,2.2512 0.0576,2.7824 0.0463,0.3776 0.12314,0.6208 0.5296,0.6816 0.1824,0.0305 0.4672,0.0559 0.5872,0.0559 0.0785,0 0.1088,0.0625 0.1088,0.1088 0,0.0591 -0.0608,0.1056 -0.2112,0.1056 -0.7248,0 -1.6016,-0.0465 -1.6608,-0.0465 -0.0495,0 -0.9072,0.0465 -1.32,0.0465 -0.1328,0 -0.2096,-0.0305 -0.2096,-0.1056 0,-0.0463 0.0305,-0.1088 0.10727,-0.1088 0.1216,0 0.2832,-0.0256 0.4032,-0.0559 0.2592,-0.0608 0.2928,-0.304 0.3472,-0.6816 0.0815,-0.5312 0.0815,-1.5424 0.0815,-2.7824 v -2.2688 z"
         inkscape:connector-curvature="0" />
      <path
         id="path3133"
         style="fill:#000000;fill-opacity:1;fill-rule:nonzero;stroke:none;stroke-width:1.06666672"
         d="m 432.54598,280.32595 c 0,3.2464 0,5.8976 0.1584,7.2816 0.11994,0.9904 0.2352,1.6224 1.264,1.7808 0.5152,0.0785 1.2672,0.1584 1.584,0.1584 0.1952,0 0.28,0.16 0.28,0.2768 0,0.1584 -0.1664,0.2784 -0.56,0.2784 -1.9376,0 -4.1888,-0.11993 -4.3472,-0.11993 -0.2032,0 -2.376,0.11993 -3.4464,0.11993 -0.352,0 -0.552,-0.08 -0.552,-0.2784 0,-0.11686 0.0768,-0.2768 0.28,-0.2768 0.3136,0 0.7472,-0.08 1.0608,-0.1584 0.6752,-0.1584 0.7968,-0.7904 0.9152,-1.7808 0.1552,-1.384 0.1984,-4.0352 0.1984,-7.2816 v -5.9328 c 0,-5.224 0,-6.1728 -0.0785,-7.24 -0.08,-1.1488 -0.36,-1.6624 -1.112,-1.8176 -0.3952,-0.08 -0.824,-0.1216 -1.064,-0.1216 -0.1584,0 -0.28,-0.1584 -0.28,-0.2768 0,-0.2 0.1568,-0.28 0.5552,-0.28 1.1472,0 3.32,0.08 3.5232,0.08 0.1584,0 2.4096,-0.08 3.48,-0.08 0.3952,0 0.5536,0.08 0.5536,0.28 0,0.1184 -0.1584,0.2768 -0.2752,0.2768 -0.2432,0 -0.48,0 -0.8736,0.08 -0.9472,0.1968 -1.1488,0.6736 -1.2256,1.8592 -0.0384,1.0672 -0.0384,2.016 -0.0384,7.24 v 5.9328 z"
         inkscape:connector-curvature="0" />
      <path
         id="path3137"
         style="fill:#000000;fill-opacity:1;fill-rule:nonzero;stroke:none;stroke-width:1.06666672"
         d="m 443.50272,286.93491 c -3.4016,-2.9296 -4.2336,-6.7648 -4.2336,-9.9712 0,-2.2544 0.832,-6.1744 3.92,-9.1792 2.0928,-2.0192 5.2576,-3.6016 10.6,-3.6016 1.3872,0 3.3632,0.1216 5.0672,0.3984 1.2992,0.2368 2.408,0.4736 3.5568,0.5152 0.3552,0 0.432,0.1584 0.432,0.3536 0,0.2784 -0.0768,0.6768 -0.1584,1.8976 -0.0369,1.1104 -0.0369,2.968 -0.0768,3.4416 -0.0384,0.5184 -0.1968,0.7152 -0.3936,0.7152 -0.24,0 -0.2784,-0.2384 -0.2784,-0.7152 0,-1.3008 -0.552,-2.6464 -1.4608,-3.3616 -1.2272,-1.0256 -3.7616,-1.8576 -6.8464,-1.8576 -4.472,0 -6.6096,1.1872 -7.8288,2.3344 -2.5744,2.3744 -3.1312,5.3808 -3.1312,8.7824 0,6.4464 5.1024,12.1856 12.544,12.1856 2.6064,0 4.352,-0.1968 5.7376,-1.5824 0.744,-0.7536 1.2256,-2.176 1.3408,-2.8112 0.0768,-0.3552 0.11994,-0.4736 0.3568,-0.4736 0.1584,0 0.3168,0.2384 0.3168,0.4736 0,0.2368 -0.4752,3.168 -0.832,4.3136 -0.1968,0.632 -0.2736,0.7536 -0.8704,0.992 -1.4176,0.5536 -4.0304,0.7488 -6.2928,0.7488 -5.2176,0 -8.7392,-1.2256 -11.4688,-3.5984"
         inkscape:connector-curvature="0" />
    </g>
  </g>
</svg>
