<?xml version="1.0" encoding="utf-8"?>
<!-- Generator: Adobe Illustrator 20.0.0, SVG Export Plug-In . SVG Version: 6.00 Build 0)  -->
<svg version="1.1"
	 id="svg54" inkscape:version="0.92.1 r15371" sodipodi:docname="fmSolo.svg" xmlns:cc="http://creativecommons.org/ns#" xmlns:dc="http://purl.org/dc/elements/1.1/" xmlns:inkscape="http://www.inkscape.org/namespaces/inkscape" xmlns:rdf="http://www.w3.org/1999/02/22-rdf-syntax-ns#" xmlns:sodipodi="http://sodipodi.sourceforge.net/DTD/sodipodi-0.dtd" xmlns:svg="http://www.w3.org/2000/svg"
	 xmlns="http://www.w3.org/2000/svg" xmlns:xlink="http://www.w3.org/1999/xlink" x="0px" y="0px" width="113px" height="113.8px"
	 viewBox="0 0 113 113.8" style="enable-background:new 0 0 113 113.8;" xml:space="preserve">
<style type="text/css">
	.st0{fill:#5EA5DC;}
	.st1{opacity:0.56;fill:url(#SVGID_1_);}
	.st2{opacity:0.56;fill:url(#SVGID_2_);}
	.st3{opacity:0.56;fill:url(#SVGID_3_);}
</style>
<sodipodi:namedview  bordercolor="#666666" borderopacity="1" fit-margin-bottom="0" fit-margin-left="0" fit-margin-right="0" fit-margin-top="0" gridtolerance="10" guidetolerance="10" id="namedview56" inkscape:current-layer="g52" inkscape:cx="282.66304" inkscape:cy="56.906169" inkscape:pageopacity="0" inkscape:pageshadow="2" inkscape:window-height="1017" inkscape:window-maximized="1" inkscape:window-width="1920" inkscape:window-x="1358" inkscape:window-y="-8" inkscape:zoom="0.61733853" objecttolerance="10" pagecolor="#ffffff" showgrid="false">
	</sodipodi:namedview>
<g>
	<path class="st0" d="M112.6,56.7v56.6h-0.4c-11.3-2.5-90.6-22.6-51.3-82.2L60,28.9l1.2,1.7l6.4,7.2l4.3-13l4.3-13.1l-13.4,2.8
		l-13.5,2.8l7.1,8l-2.9-1.9c-36.3,26.9-21.2,80.3-18.1,89.9h-35V56.7c0-30.8,25.2-56.1,56.1-56.1c15.4,0,29.4,6.3,39.6,16.5
		C106.3,27.2,112.6,41.2,112.6,56.7z"/>
	<linearGradient id="SVGID_1_" gradientUnits="userSpaceOnUse" x1="35.4221" y1="55.3403" x2="111.7543" y2="80.7844">
		<stop  offset="0" style="stop-color:#FFFFFF;stop-opacity:0"/>
		<stop  offset="1" style="stop-color:#222220"/>
	</linearGradient>
	<path class="st1" d="M100,21.4c-1.2-1.5-2.5-3-3.9-4.3C85.9,6.9,71.9,0.6,56.5,0.6C25.7,0.6,0.4,25.8,0.4,56.7v51.8
		c10.6-3.4,21-7.9,30.8-13.2c-3.3-20.7-3.3-52.9,22.3-71.9l2.9,1.9l-7.1-8l13.5-2.8l13.4-2.8L72,24.7l-4.3,13l-6.4-7.2L60,28.9
		l0.9,2.2c-13.6,20.6-13,36.5-6,48.5C74.7,64.1,90.7,44.3,100,21.4z"/>
	<path class="st0" d="M0.4,113.3h35c-0.9-2.8-2.8-9.4-4.2-18c-9.8,5.4-20.2,9.8-30.8,13.2V113.3z"/>
	<path class="st0" d="M100,21.4c-9.3,22.9-25.4,42.7-45.1,58.2c13.3,22.8,49.8,32,57.3,33.6h0.4V56.7C112.6,43.3,107.9,31,100,21.4z
		"/>
	<linearGradient id="SVGID_2_" gradientUnits="userSpaceOnUse" x1="-46.9884" y1="20.6694" x2="41.6782" y2="138.6694">
		<stop  offset="0" style="stop-color:#FFFFFF;stop-opacity:0"/>
		<stop  offset="1" style="stop-color:#222220"/>
	</linearGradient>
	<path class="st2" d="M0.4,113.3h35c-0.9-2.8-2.8-9.4-4.2-18c-9.8,5.4-20.2,9.8-30.8,13.2V113.3z"/>
	<linearGradient id="SVGID_3_" gradientUnits="userSpaceOnUse" x1="11.175" y1="-37.5438" x2="99.8417" y2="80.4562">
		<stop  offset="0" style="stop-color:#FFFFFF;stop-opacity:0"/>
		<stop  offset="1" style="stop-color:#222220"/>
	</linearGradient>
	<path class="st3" d="M100,21.4c-9.3,22.9-25.4,42.7-45.1,58.2c13.3,22.8,49.8,32,57.3,33.6h0.4V56.7C112.6,43.3,107.9,31,100,21.4z
		"/>
</g>
</svg>
